<svg width="214" height="120" viewBox="0 0 214 120" fill="none" xmlns="http://www.w3.org/2000/svg">
<g clip-path="url(#clip0_239_166)">
<path d="M82.1631 17.4061L39.3284 0.875311C20.2594 -1.21825 5.29876 0.703935 0.0972741 3.88133C0.0972741 3.89986 0.0972741 3.91839 0.0972741 3.93691L0.00463867 3.8767L0.0509564 90.2315L28.9254 117.772L32.6448 117.23L32.5984 22.5566L4.68273 5.33571L35.7017 3.28383L76.1973 20.3658L76.2436 110.088L79.7545 112.043L82.2047 111.533L82.1584 17.4107L82.1631 17.4061Z" fill="#152D53"/>
<path d="M47.6934 51.9313V109.226L55.5535 113.261L48.3603 51.9081C48.3233 51.5422 47.6934 51.5654 47.6934 51.9313Z" fill="#152D53"/>
<path d="M29.5832 8.82812L55.132 23.534L61.7138 77.5266C61.7509 77.8925 62.3808 77.8694 62.3808 77.5034V22.8068L29.6851 8.63359C29.5322 8.58264 29.4396 8.77254 29.5878 8.83275L29.5832 8.82812Z" fill="#152D53"/>
<path d="M104.354 27.999L113.377 53.3534H113.478V27.999H120.324V65.0208H111.82L102.696 39.0968H102.594V65.0208H95.748V27.999H104.354Z" fill="#152D53"/>
<path d="M138.74 47.9111C138.708 46.8411 138.638 45.9055 138.532 45.1089C138.43 44.2798 138.24 43.5896 137.962 43.0338C137.721 42.4456 137.355 42.0148 136.874 41.7369C136.424 41.4266 135.836 41.2691 135.109 41.2691C134.382 41.2691 133.78 41.4405 133.293 41.7879C132.844 42.0982 132.483 42.529 132.205 43.0848C131.927 43.6035 131.718 44.1918 131.584 44.8495C131.482 45.5072 131.427 46.1649 131.427 46.818V47.9065H138.736L138.74 47.9111ZM131.431 52.1631V54.3909C131.431 55.22 131.482 56.0352 131.589 56.8273C131.728 57.5869 131.936 58.277 132.209 58.9023C132.487 59.4905 132.849 59.9722 133.298 60.352C133.747 60.6994 134.298 60.8708 134.956 60.8708C136.165 60.8708 137.05 60.44 137.601 59.5739C138.152 58.7077 138.536 57.397 138.74 55.6323H145.169C145.03 58.8791 144.169 61.3525 142.575 63.0477C140.987 64.743 138.481 65.5906 135.058 65.5906C132.464 65.5906 130.445 65.1598 128.99 64.2937C127.541 63.4275 126.466 62.2881 125.776 60.8708C125.086 59.4535 124.65 57.8648 124.479 56.1001C124.34 54.3354 124.271 52.5753 124.271 50.8106C124.271 48.944 124.391 47.1468 124.632 45.4192C124.91 43.6915 125.428 42.1538 126.188 40.8059C126.985 39.4581 128.106 38.3882 129.56 37.5915C131.01 36.7948 132.946 36.4011 135.368 36.4011C137.443 36.4011 139.134 36.7485 140.449 37.4386C141.797 38.0964 142.853 39.0459 143.613 40.2918C144.372 41.5007 144.891 42.9875 145.169 44.7522C145.447 46.4799 145.586 48.4159 145.586 50.5605V52.1677H131.431V52.1631Z" fill="#152D53"/>
<path d="M149.315 37.133H156.16V40.8662H156.262C156.989 39.5183 157.869 38.4484 158.907 37.6517C159.944 36.8226 161.204 36.4058 162.691 36.4058C162.9 36.4058 163.108 36.4243 163.312 36.4567C163.553 36.4567 163.78 36.4752 163.988 36.5077V43.3534C163.608 43.321 163.228 43.3025 162.849 43.3025C162.501 43.2701 162.14 43.2515 161.76 43.2515C161.139 43.2515 160.514 43.3395 159.893 43.5109C159.273 43.6823 158.703 43.9787 158.184 44.3909C157.666 44.7707 157.249 45.2895 156.938 45.9472C156.628 46.5679 156.471 47.346 156.471 48.2816V65.0301H149.315V37.133Z" fill="#152D53"/>
<path d="M173.168 51.9546C173.168 52.9227 173.201 53.8397 173.27 54.7013C173.372 55.5674 173.548 56.3455 173.789 57.0357C174.067 57.6934 174.428 58.226 174.877 58.6429C175.364 59.0227 175.984 59.2126 176.744 59.2126C177.504 59.2126 178.124 59.0227 178.611 58.6429C179.129 58.226 179.528 57.6749 179.801 56.9847C180.111 56.2946 180.32 55.4655 180.422 54.4975C180.561 53.497 180.63 52.4039 180.63 51.2321C180.63 47.8462 180.352 45.4423 179.801 44.025C179.282 42.6077 178.314 41.899 176.897 41.899C176.1 41.899 175.461 42.0704 174.979 42.4178C174.498 42.7652 174.113 43.3349 173.84 44.1269C173.562 44.8865 173.372 45.924 173.27 47.2395C173.201 48.5178 173.168 50.0926 173.168 51.9592V51.9546ZM187.48 37.1237V63.6221C187.48 67.2163 186.582 69.912 184.785 71.7091C183.02 73.5063 180.051 74.4048 175.869 74.4048C172.825 74.4048 170.477 73.7471 168.819 72.4363C167.193 71.158 166.383 69.3238 166.383 66.9384H173.228C173.228 67.837 173.59 68.5456 174.317 69.0644C174.664 69.3052 175.026 69.4951 175.405 69.6341C175.822 69.773 176.253 69.8425 176.702 69.8425C178.152 69.8425 179.176 69.3747 179.764 68.4437C180.352 67.5081 180.644 66.3502 180.644 64.9699V61.2876H180.542C179.815 62.3252 178.916 63.1542 177.846 63.7749C176.809 64.3956 175.72 64.7105 174.581 64.7105C171.746 64.7105 169.602 63.6406 168.152 61.4961C166.735 59.3191 166.026 55.6878 166.026 50.6068C166.026 48.981 166.114 47.3228 166.285 45.6276C166.494 43.9324 166.892 42.4132 167.476 41.0653C168.096 39.6804 168.981 38.5595 170.12 37.6934C171.297 36.8272 172.853 36.3965 174.789 36.3965C175.79 36.3965 176.827 36.6744 177.902 37.2256C178.972 37.7768 179.856 38.7818 180.547 40.2316H180.649V37.119H187.494L187.48 37.1237Z" fill="#152D53"/>
<path d="M193.015 68.652C193.636 68.7539 194.261 68.8095 194.882 68.8095C196.197 68.8095 197.128 68.4621 197.684 67.772C198.272 67.0819 198.615 66.1648 198.722 65.0253L190.894 37.1282H198.36L202.51 56.4149H202.612L206.244 37.1282H213.4L206.661 63.1587C206.04 65.4746 205.433 67.3412 204.845 68.7586C204.294 70.2083 203.617 71.3153 202.821 72.0749C202.061 72.8716 201.126 73.3903 200.019 73.6312C198.949 73.872 197.582 73.9925 195.924 73.9925H193.02V68.652H193.015Z" fill="#152D53"/>
<path d="M106.105 109.796L94.2798 77.3323H100.959L109.958 103.395L119.004 77.3323H125.637L113.812 109.796H106.114H106.105Z" fill="#2760AD"/>
<path d="M134.164 86.4197H127.902V109.796H134.164V86.4197Z" fill="#2760AD"/>
<path d="M148.787 110.352C146.651 110.352 144.743 109.824 143.057 108.777C141.371 107.726 140.051 106.271 139.092 104.419C138.133 102.566 137.656 100.477 137.656 98.1566C137.656 95.836 138.133 93.6637 139.092 91.8249C140.051 89.9861 141.394 88.5317 143.126 87.4664C144.859 86.4011 146.79 85.8685 148.925 85.8685C150.625 85.8685 152.103 86.1788 153.353 86.7948C154.604 87.4155 155.618 88.2955 156.392 89.4396V76.4058H162.654V109.801H157.087L156.392 106.554C155.896 107.267 155.303 107.906 154.604 108.481C153.909 109.055 153.089 109.509 152.145 109.847C151.2 110.185 150.079 110.357 148.782 110.357L148.787 110.352ZM150.269 104.877C151.538 104.877 152.636 104.59 153.562 104.02C154.488 103.451 155.215 102.654 155.743 101.63C156.267 100.611 156.531 99.421 156.531 98.0593C156.531 96.6976 156.267 95.5535 155.743 94.5345C155.215 93.5155 154.484 92.7235 153.539 92.1677C152.594 91.6119 151.491 91.334 150.222 91.334C149.046 91.334 147.99 91.6211 147.045 92.1908C146.1 92.7652 145.368 93.5572 144.84 94.5808C144.312 95.5998 144.053 96.7624 144.053 98.0593C144.053 99.3562 144.317 100.602 144.84 101.607C145.364 102.612 146.1 103.409 147.045 103.997C147.99 104.585 149.064 104.877 150.269 104.877Z" fill="#2760AD"/>
<path d="M170.306 120L175.966 107.198H174.576L165.252 86.4197H172.024L178.703 101.445L184.687 86.4197H191.366L176.943 120H170.31H170.306Z" fill="#2760AD"/>
<path d="M199.94 110.352C198.022 110.352 196.429 110.032 195.164 109.402C193.895 108.768 192.946 107.92 192.311 106.85C191.677 105.785 191.362 104.599 191.362 103.302C191.362 101.848 191.723 100.584 192.45 99.4997C193.177 98.4159 194.284 97.5729 195.767 96.9708C197.249 96.3686 199.139 96.0676 201.427 96.0676H207.133C207.133 94.8911 206.985 93.9323 206.693 93.1912C206.396 92.4502 205.919 91.8943 205.257 91.5238C204.59 91.1533 203.719 90.968 202.635 90.968C201.459 90.968 200.463 91.2135 199.643 91.7091C198.824 92.2047 198.323 92.9921 198.138 94.0759H192.061C192.214 92.3761 192.765 90.9217 193.705 89.7174C194.65 88.5132 195.901 87.5683 197.462 86.8874C199.023 86.2065 200.764 85.8684 202.682 85.8684C204.877 85.8684 206.786 86.2343 208.411 86.9569C210.032 87.6841 211.269 88.7494 212.121 90.1574C212.974 91.5655 213.395 93.2746 213.395 95.2848V109.801H208.152L207.457 106.23C207.114 106.85 206.707 107.406 206.23 107.897C205.748 108.393 205.192 108.823 204.562 109.194C203.928 109.565 203.242 109.852 202.497 110.051C201.755 110.25 200.903 110.352 199.944 110.352H199.94ZM201.468 105.53C202.242 105.53 202.946 105.382 203.58 105.09C204.215 104.798 204.761 104.386 205.225 103.863C205.688 103.339 206.058 102.751 206.336 102.103C206.614 101.454 206.799 100.741 206.892 99.9675V99.9212H202.117C201.126 99.9212 200.329 100.037 199.727 100.269C199.125 100.5 198.685 100.834 198.407 101.264C198.129 101.7 197.99 102.191 197.99 102.747C197.99 103.335 198.129 103.835 198.407 104.252C198.685 104.669 199.092 104.988 199.634 105.201C200.176 105.419 200.787 105.526 201.468 105.526V105.53Z" fill="#2760AD"/>
<path d="M132.705 76.2715H129.361C128.555 76.2715 127.902 76.9247 127.902 77.7305V81.9732C127.902 82.779 128.555 83.4322 129.361 83.4322H132.705C133.511 83.4322 134.164 82.779 134.164 81.9732V77.7305C134.164 76.9247 133.511 76.2715 132.705 76.2715Z" fill="#FAA51A"/>
</g>
<defs>
<clipPath id="clip0_239_166">
<rect width="213.39" height="120" fill="white"/>
</clipPath>
</defs>
</svg>
