<svg width="24" height="30" viewBox="0 0 24 30" fill="none" xmlns="http://www.w3.org/2000/svg">
<path d="M17.3335 23.1136V19.1136M17.3335 15.1136V15.1003M6.66683 15.1136V15.1003M12.0002 15.1136V15.1003M6.66683 19.1136V19.1003M12.0002 19.1136V19.1003M6.66683 23.1136V23.1003M12.0002 23.1136V23.1003M12.0002 1.78027C9.7502 1.78027 6.84798 2.11332 4.63898 2.42242C2.72075 2.69082 1.3335 4.34957 1.3335 6.28649V24.4469C1.3335 26.6561 3.12436 28.4469 5.3335 28.4469H18.6668C20.876 28.4469 22.6668 26.6561 22.6668 24.4469V6.28649C22.6668 4.34957 21.2796 2.69082 19.3613 2.42242C17.1523 2.11332 14.2501 1.78027 12.0002 1.78027ZM8.00016 11.1136H16.0002C16.7365 11.1136 17.3335 10.5167 17.3335 9.78027V8.44694C17.3335 7.71056 16.7365 7.11361 16.0002 7.11361H8.00016C7.26378 7.11361 6.66683 7.71056 6.66683 8.44694V9.78027C6.66683 10.5167 7.26378 11.1136 8.00016 11.1136Z" stroke="#2760AD" stroke-width="2" stroke-linecap="round"/>
</svg>
