<svg width="19" height="19" viewBox="0 0 19 19" fill="none" xmlns="http://www.w3.org/2000/svg">
<path d="M9.4896 7.38372e-05C9.29443 0.00292762 9.10806 0.0817497 8.97007 0.2198L5.97007 3.2198C5.89809 3.28891 5.84063 3.37169 5.80104 3.46328C5.76145 3.55488 5.74054 3.65345 5.73952 3.75323C5.73851 3.85301 5.75742 3.95199 5.79513 4.04437C5.83285 4.13675 5.88862 4.22068 5.95918 4.29124C6.02974 4.3618 6.11366 4.41757 6.20605 4.45529C6.29843 4.493 6.39741 4.51191 6.49719 4.51089C6.59697 4.50988 6.69554 4.48897 6.78714 4.44938C6.87873 4.40979 6.96151 4.35233 7.03062 4.28035L8.75034 2.56062V8.75007H2.56089L4.28062 7.03035C4.3526 6.96124 4.41006 6.87846 4.44965 6.78687C4.48923 6.69527 4.51015 6.5967 4.51116 6.49692C4.51218 6.39714 4.49327 6.29816 4.45556 6.20578C4.41784 6.11339 4.36207 6.02947 4.29151 5.95891C4.22095 5.88835 4.13702 5.83258 4.04464 5.79486C3.95226 5.75715 3.85328 5.73824 3.7535 5.73925C3.65372 5.74027 3.55515 5.76118 3.46355 5.80077C3.37196 5.84036 3.28918 5.89782 3.22007 5.9698L0.220071 8.9698C0.0794713 9.11046 0.000488281 9.3012 0.000488281 9.50007C0.000488281 9.69895 0.0794713 9.88969 0.220071 10.0303L3.22007 13.0303C3.28918 13.1023 3.37196 13.1598 3.46355 13.1994C3.55515 13.239 3.65372 13.2599 3.7535 13.2609C3.85328 13.2619 3.95226 13.243 4.04464 13.2053C4.13702 13.1676 4.22095 13.1118 4.29151 13.0412C4.36207 12.9707 4.41784 12.8868 4.45556 12.7944C4.49327 12.702 4.51218 12.603 4.51116 12.5032C4.51015 12.4035 4.48923 12.3049 4.44965 12.2133C4.41006 12.1217 4.3526 12.0389 4.28062 11.9698L2.56089 10.2501H8.75034V16.4395L7.03062 14.7198C6.96151 14.6478 6.87873 14.5904 6.78714 14.5508C6.69554 14.5112 6.59697 14.4903 6.49719 14.4893C6.39741 14.4882 6.29843 14.5071 6.20605 14.5449C6.11366 14.5826 6.02974 14.6383 5.95918 14.7089C5.88862 14.7795 5.83285 14.8634 5.79513 14.9558C5.75742 15.0482 5.73851 15.1471 5.73952 15.2469C5.74054 15.3467 5.76145 15.4453 5.80104 15.5369C5.84063 15.6285 5.89809 15.7112 5.97007 15.7803L8.97007 18.7803C9.11073 18.9209 9.30147 18.9999 9.50034 18.9999C9.69922 18.9999 9.88996 18.9209 10.0306 18.7803L13.0306 15.7803C13.1026 15.7112 13.1601 15.6285 13.1996 15.5369C13.2392 15.4453 13.2601 15.3467 13.2612 15.2469C13.2622 15.1471 13.2433 15.0482 13.2056 14.9558C13.1678 14.8634 13.1121 14.7795 13.0415 14.7089C12.971 14.6383 12.887 14.5826 12.7946 14.5449C12.7023 14.5071 12.6033 14.4882 12.5035 14.4893C12.4037 14.4903 12.3051 14.5112 12.2136 14.5508C12.122 14.5904 12.0392 14.6478 11.9701 14.7198L10.2503 16.4395V10.2501H16.4398L14.7201 11.9698C14.6481 12.0389 14.5906 12.1217 14.551 12.2133C14.5115 12.3049 14.4905 12.4035 14.4895 12.5032C14.4885 12.603 14.5074 12.702 14.5451 12.7944C14.5828 12.8868 14.6386 12.9707 14.7092 13.0412C14.7797 13.1118 14.8637 13.1676 14.956 13.2053C15.0484 13.243 15.1474 13.2619 15.2472 13.2609C15.347 13.2599 15.4455 13.239 15.5371 13.1994C15.6287 13.1598 15.7115 13.1023 15.7806 13.0303L18.7806 10.0303C18.9212 9.88969 19.0002 9.69895 19.0002 9.50007C19.0002 9.3012 18.9212 9.11046 18.7806 8.9698L15.7806 5.9698C15.7115 5.89782 15.6287 5.84036 15.5371 5.80077C15.4455 5.76118 15.347 5.74027 15.2472 5.73925C15.1474 5.73824 15.0484 5.75715 14.956 5.79486C14.8637 5.83258 14.7797 5.88835 14.7092 5.95891C14.6386 6.02947 14.5828 6.11339 14.5451 6.20578C14.5074 6.29816 14.4885 6.39714 14.4895 6.49692C14.4905 6.5967 14.5115 6.69527 14.551 6.78687C14.5906 6.87846 14.6481 6.96124 14.7201 7.03035L16.4398 8.75007H10.2503V2.56062L11.9701 4.28035C12.0392 4.35233 12.122 4.40979 12.2136 4.44938C12.3051 4.48897 12.4037 4.50988 12.5035 4.51089C12.6033 4.51191 12.7023 4.493 12.7946 4.45529C12.887 4.41757 12.971 4.3618 13.0415 4.29124C13.1121 4.22068 13.1678 4.13675 13.2056 4.04437C13.2433 3.95199 13.2622 3.85301 13.2612 3.75323C13.2601 3.65345 13.2392 3.55488 13.1996 3.46328C13.1601 3.37169 13.1026 3.28891 13.0306 3.2198L10.0306 0.2198C9.95971 0.148864 9.8753 0.0928693 9.78237 0.0551283C9.68944 0.0173872 9.58989 -0.0013334 9.4896 7.38372e-05Z" fill="black"/>
</svg>
