<svg width="400" height="235" viewBox="0 0 400 235" fill="none" xmlns="http://www.w3.org/2000/svg">
<g opacity="0.12">
<mask id="mask0_2169_5032" style="mask-type:alpha" maskUnits="userSpaceOnUse" x="0" y="0" width="400" height="361">
<rect width="400" height="361" rx="24" fill="white"/>
</mask>
<g mask="url(#mask0_2169_5032)">
<g filter="url(#filter0_f_2169_5032)">
<ellipse cx="329.5" cy="44.5" rx="162.5" ry="158.5" fill="#F4C871"/>
</g>
<g filter="url(#filter1_f_2169_5032)">
<ellipse cx="83.5" cy="55" rx="151.5" ry="141" fill="#E46043"/>
</g>
</g>
</g>
<path d="M283.095 88.07L276.263 86.1533L253.845 166.071L260.677 167.987L283.095 88.07Z" fill="#DCDCDC"/>
<path d="M282.332 77.654L276.263 86.154L283.095 88.072L282.332 77.654Z" fill="black"/>
<path d="M282.332 77.654L279.297 81.9047L282.713 82.8627L282.332 77.654Z" fill="#2760AD"/>
<path d="M269.089 69.806L262.025 69.1293L254.113 151.754L261.177 152.43L269.089 69.806Z" fill="#2760AD"/>
<path d="M262.643 69.878L268.341 70.424L260.559 151.68L254.862 151.134L262.643 69.878ZM262.025 69.1293L254.113 151.751L261.177 152.427L269.09 69.8026L262.025 69.126V69.1293Z" fill="black"/>
<path d="M266.494 59.6883L262.025 69.1294L269.09 69.806L266.494 59.6883Z" fill="#DCDCDC"/>
<path d="M266.494 59.6883L264.26 64.408L267.792 64.7462L266.494 59.6883Z" fill="black"/>
<path d="M193.335 126.955H180.629V165.239H193.335V126.955Z" fill="#DCDCDC"/>
<path d="M205.681 165.239H168.287C167.371 165.239 166.629 165.981 166.629 166.897C166.629 167.813 167.371 168.555 168.287 168.555H205.681C206.597 168.555 207.339 167.813 207.339 166.897C207.339 165.981 206.597 165.239 205.681 165.239Z" fill="#DCDCDC"/>
<path d="M245.5 30.7333H128.576C124.954 30.7333 122.017 33.6697 122.017 37.2918V120.864C122.017 124.486 124.954 127.423 128.576 127.423H245.5C249.122 127.423 252.059 124.486 252.059 120.864V37.2918C252.059 33.6697 249.122 30.7333 245.5 30.7333Z" fill="#DCDCDC"/>
<path d="M244.161 34.1397H129.817C127.268 34.1397 125.202 36.2059 125.202 38.7546V119.525C125.202 122.074 127.268 124.14 129.817 124.14H244.161C246.709 124.14 248.776 122.074 248.776 119.525V38.7546C248.776 36.2059 246.709 34.1397 244.161 34.1397Z" fill="white"/>
<path d="M228.666 115.763L145.434 115.851V53.0116H228.666V115.763Z" fill="white"/>
<path d="M227.979 53.6983V115.077L146.119 115.164V53.7001L227.979 53.6983ZM228.666 53.0116H145.432V115.849L228.666 115.761V53.0116Z" fill="#2760AD"/>
<path d="M234.203 50.3792L228.043 53.1411L228.323 53.7678L234.483 51.0059L234.203 50.3792Z" fill="#2760AD"/>
<path d="M232.689 51.6397H232.002V115.543H232.689V51.6397Z" fill="#2760AD"/>
<path d="M230.766 52.4069H230.079V115.541H230.766V52.4069Z" fill="#2760AD"/>
<path d="M140.075 116.155L139.389 116.091L145.423 51.6071C145.431 51.526 145.467 51.4503 145.525 51.3934C145.583 51.3365 145.66 51.3021 145.741 51.2963C147.08 51.2001 178.465 48.9854 187.051 52.6389C196.095 48.9768 232.788 50.2919 234.354 50.3503C234.443 50.3539 234.527 50.3916 234.588 50.4556C234.649 50.5196 234.684 50.6049 234.684 50.6937V115.543C234.684 115.635 234.647 115.722 234.583 115.786C234.519 115.851 234.431 115.887 234.34 115.887H155.843V115.2H233.999V51.0251C230.221 50.898 195.413 49.8387 187.183 53.3273C187.14 53.346 187.093 53.3557 187.047 53.3557C186.999 53.3557 186.953 53.346 186.91 53.3273C179.098 49.8455 149.353 51.7427 146.083 51.9642L140.075 116.155Z" fill="#2760AD"/>
<path d="M147.268 163.884V168.844H152.619V166.173L147.268 163.884Z" fill="black"/>
<path d="M158.59 158.059L176.445 157.435L176.821 116.359C176.829 115.431 176.756 114.503 176.602 113.588C175.357 106.152 168.835 102.615 161.298 102.445L141.814 102.387L158.307 117.928L158.59 158.059Z" fill="#DD6B56"/>
<path d="M143.552 103.079L161.291 103.132C165.068 103.218 168.4 104.163 170.927 105.862C173.675 107.715 175.365 110.353 175.927 113.701C176.073 114.577 176.143 115.464 176.137 116.352L175.767 156.771L159.285 157.348L158.993 117.928V117.635L158.779 117.434L143.552 103.079ZM141.816 102.392L158.307 117.928L158.59 158.059L176.445 157.435L176.821 116.359C176.829 115.431 176.756 114.503 176.602 113.588C175.357 106.152 168.835 102.615 161.298 102.445L141.814 102.387L141.816 102.392Z" fill="black"/>
<path d="M158.595 156.802L158.648 168.842L187.818 168.737L176.518 156.812L158.595 156.802Z" fill="black"/>
<path d="M159.285 157.489L176.223 157.499L186.232 168.061L159.337 168.157L159.285 157.489ZM158.599 156.802L158.652 168.842L187.821 168.737L176.521 156.812L158.59 156.802H158.599Z" fill="black"/>
<path d="M147.278 156.802L147.268 164.646L157.732 168.82L176.825 168.737L165.525 156.812L147.278 156.802Z" fill="black"/>
<path d="M147.963 157.489L165.229 157.499L175.233 168.057L157.862 168.133L147.954 164.184L147.963 157.489ZM147.276 156.802L147.266 164.646L157.732 168.82L176.825 168.737L165.525 156.812L147.278 156.802H147.276Z" fill="black"/>
<path d="M165.61 113.465C164.364 106.031 158.181 102.611 150.644 102.441H149.022V102.403L144.608 101.79L117.289 101.961L117.328 109.497C117.328 120.021 123.207 123.829 131.625 123.851L147.64 123.823L147.557 157.175H165.566L165.83 116.241C165.837 115.311 165.764 114.382 165.61 113.465Z" fill="#DD6B56"/>
<path d="M165.908 157.517H147.214L147.297 124.167L131.635 124.195C127.082 124.183 123.539 123.063 121.099 120.867C118.374 118.414 116.992 114.589 116.994 109.497L116.944 101.618L144.63 101.446H144.654L149.316 102.099H150.645C159.201 102.305 164.771 106.425 165.949 113.413C166.105 114.348 166.181 115.295 166.174 116.244L165.908 157.517ZM147.903 156.831H165.224L165.487 116.239C165.494 115.33 165.422 114.423 165.272 113.526C164.16 106.889 158.825 102.974 150.636 102.789H148.679V102.707L144.584 102.133L117.629 102.305L117.667 109.497C117.667 118.768 122.361 123.486 131.622 123.51L147.98 123.481L147.903 156.831Z" fill="black"/>
<path d="M123.286 50.9769L116.947 58.1483L116.961 102.305L149.022 102.407L156.293 50.9117L123.286 50.9769Z" fill="#FFD9D2"/>
<path d="M155.5 51.6002L148.424 101.719L117.648 101.618L117.634 58.4076L123.597 51.6569L155.5 51.6002ZM156.291 50.9135L123.286 50.9701L116.947 58.1415L116.961 102.305L149.022 102.407L156.293 50.9117L156.291 50.9135Z" fill="black"/>
<path d="M156.607 73.4247C156.987 73.844 156.951 84.8007 156.535 85.1807C156.12 85.56 155.467 75.2227 155.088 74.7987C154.939 74.5927 154.871 74.3393 154.897 74.0867C154.924 73.834 155.043 73.6 155.231 73.43C155.42 73.26 155.664 73.1653 155.918 73.164C156.172 73.1633 156.418 73.256 156.607 73.4247Z" fill="white"/>
<path d="M151.867 71.4353C151.867 71.4353 146.351 101.961 148.117 102.864C153.929 105.814 163.591 103.919 163.605 93.892C163.605 90.0926 163.591 72.3193 163.591 72.3193L151.867 71.4353Z" fill="#FFD9D2"/>
<path d="M152.433 72.1666L162.906 72.956C162.906 76.1666 162.924 90.544 162.918 93.89C162.918 97.006 161.905 99.5366 160 101.209C158.36 102.649 156.075 103.441 153.568 103.441C151.835 103.445 150.123 103.059 148.558 102.313C148.473 102.031 148.306 100.919 148.713 96.8193C148.979 94.132 149.448 90.568 150.104 86.224C151.045 80.0673 152.097 74.0586 152.433 72.1666ZM151.867 71.4353C151.867 71.4353 146.351 101.961 148.117 102.864C149.812 103.704 151.679 104.138 153.57 104.131C158.558 104.131 163.595 101.13 163.605 93.892C163.605 90.0926 163.591 72.3193 163.591 72.3193L151.86 71.4353H151.867Z" fill="black"/>
<path d="M163.598 55.7995V73.1173L151.584 72.8207L146.934 54.6389L163.598 55.7995Z" fill="white"/>
<path d="M147.836 55.3892L162.912 56.4399V72.4066L152.119 72.1407L147.836 55.3892ZM146.934 54.6389L151.584 72.8207L163.602 73.1173V55.7995L146.938 54.6389H146.934Z" fill="black"/>
<path d="M151.415 60.5364C156.407 60.5364 160.453 56.4901 160.453 51.4988C160.453 46.5074 156.407 42.4612 151.415 42.4612C146.424 42.4612 142.378 46.5074 142.378 51.4988C142.378 56.4901 146.424 60.5364 151.415 60.5364Z" fill="white"/>
<path d="M151.41 43.1447C152.164 43.1452 152.915 43.2474 153.642 43.4486C155.679 44.0141 157.425 45.332 158.527 47.1358C159.629 48.9397 160.005 51.0948 159.579 53.1652C159.153 55.2357 157.956 57.067 156.231 58.2887C154.506 59.5104 152.381 60.0314 150.286 59.7462C148.192 59.461 146.284 58.391 144.948 56.7526C143.612 55.1141 142.949 53.0295 143.092 50.9204C143.234 48.8114 144.173 46.8352 145.717 45.3917C147.261 43.9482 149.296 43.145 151.41 43.1447ZM151.41 42.458C149.117 42.4555 146.908 43.3244 145.231 44.8889C143.554 46.4535 142.534 48.5967 142.377 50.8849C142.22 53.1731 142.939 55.4353 144.387 57.2137C145.836 58.9921 147.905 60.1539 150.178 60.4639C152.45 60.7739 154.756 60.2091 156.627 58.8836C158.499 57.5582 159.797 55.5711 160.259 53.3245C160.722 51.0781 160.313 48.7399 159.116 46.7834C157.919 44.8268 156.024 43.3979 153.814 42.7859C153.031 42.5691 152.222 42.4588 151.41 42.458Z" fill="black"/>
<path d="M152.428 53.8341C152.337 53.8341 152.25 53.7979 152.186 53.7335C152.121 53.6691 152.085 53.5817 152.085 53.4907C152.085 53.3996 152.121 53.3123 152.186 53.2479C152.25 53.1835 152.337 53.1473 152.428 53.1473L154.787 53.137C154.061 52.476 153.136 51.257 152.955 49.2517C152.951 49.2066 152.956 49.1611 152.97 49.1179C152.983 49.0747 153.005 49.0346 153.034 48.9999C153.063 48.9651 153.099 48.9364 153.139 48.9154C153.179 48.8944 153.223 48.8815 153.268 48.8774C153.313 48.8734 153.358 48.8783 153.402 48.8917C153.445 48.9053 153.485 48.9271 153.52 48.9561C153.555 48.9851 153.583 49.0207 153.604 49.0609C153.625 49.1009 153.638 49.1448 153.642 49.1899C153.907 52.1086 155.914 53.1267 155.999 53.1679C156.069 53.2017 156.126 53.2583 156.159 53.3284C156.193 53.3985 156.202 53.4778 156.184 53.5535C156.167 53.6293 156.125 53.6969 156.064 53.7454C156.003 53.7938 155.928 53.8203 155.85 53.8203L152.435 53.8341H152.428Z" fill="black"/>
<path d="M248.776 37.6747H125.202V43.8555H248.776V37.6747Z" fill="#DCDCDC"/>
<path d="M150.366 50.9117C150.647 50.9117 150.875 50.3998 150.875 49.7683C150.875 49.1368 150.647 48.6249 150.366 48.6249C150.086 48.6249 149.858 49.1368 149.858 49.7683C149.858 50.3998 150.086 50.9117 150.366 50.9117Z" fill="black"/>
<path d="M124.321 79.1387L135.943 101.907L139.576 102.305L124.321 79.1387Z" fill="black"/>
<path d="M156.293 50.9117C156.573 50.9117 156.801 50.3998 156.801 49.7683C156.801 49.1368 156.573 48.6249 156.293 48.6249C156.012 48.6249 155.785 49.1368 155.785 49.7683C155.785 50.3998 156.012 50.9117 156.293 50.9117Z" fill="black"/>
<path d="M140.015 75.0253L133.663 58.5775C128.068 44.6708 111.96 50.9803 118.333 66.0219C118.333 66.0219 125.858 84.928 133.984 96.7967C136.183 99.9987 138.503 101.961 140.271 102.864C146.083 105.814 155.745 103.919 155.759 93.892C155.759 90.0927 155.745 72.342 155.745 72.342H140.034L140.015 75.0253Z" fill="#FFD9D2"/>
<path d="M124.38 51.5348C127.959 51.5348 131.192 54.263 133.031 58.8298L139.375 75.272L140.678 78.6494L140.702 75.03L140.716 73.03H155.06C155.06 76.3353 155.077 90.5627 155.072 93.892C155.072 97.008 154.059 99.5387 152.154 101.211C150.512 102.651 148.229 103.443 145.722 103.443C143.939 103.447 142.179 103.039 140.58 102.249C138.607 101.249 136.412 99.12 134.556 96.412C126.567 84.7374 119.051 65.9583 118.975 65.7712C117.981 63.4259 117.507 61.2077 117.567 59.1766C117.619 57.4065 118.082 55.7978 118.941 54.5239C119.523 53.6089 120.327 52.8555 121.278 52.333C122.228 51.8106 123.295 51.5361 124.38 51.5348ZM124.38 50.8481C118.984 50.8481 114.422 56.7902 118.34 66.0218C118.34 66.0218 125.865 84.928 133.991 96.7967C136.183 99.9987 138.503 101.961 140.271 102.864C141.966 103.704 143.833 104.137 145.724 104.131C150.711 104.131 155.749 101.13 155.759 93.892C155.759 90.0927 155.745 72.3414 155.745 72.3414H140.034L140.015 75.0233L133.663 58.5757C131.501 53.2019 127.771 50.8497 124.373 50.8497L124.38 50.8481Z" fill="black"/>
<path d="M155.745 73.118H139.967L139.735 54.9514L143.997 55.7C145.43 55.9507 145.001 55.2828 146.265 56.0039C154.205 60.5381 155.745 73.118 155.745 73.118Z" fill="white"/>
<path d="M140.433 55.7772L143.878 56.3832C144.116 56.4271 144.357 56.4506 144.599 56.4536C144.819 56.454 145.039 56.4268 145.252 56.3729C145.289 56.363 145.327 56.3556 145.365 56.3506C145.365 56.3506 145.48 56.3506 145.923 56.6064C149.839 58.8384 152.104 63.2078 153.328 66.4784C154.042 68.4106 154.583 70.4026 154.944 72.4306H140.645L140.433 55.7772ZM139.735 54.9582L139.967 73.1173H155.745C155.745 73.1173 154.2 60.538 146.265 56.0038C145.786 55.7308 145.551 55.6604 145.365 55.6604C145.145 55.6604 144.996 55.7634 144.599 55.7634C144.397 55.7602 144.196 55.7401 143.997 55.7034L139.735 54.9548V54.9582Z" fill="black"/>
<path d="M140.334 90.898C140.243 90.898 140.156 90.8613 140.092 90.7973C140.027 90.7327 139.991 90.6453 139.991 90.5547V72.342C139.991 72.2507 140.027 72.1633 140.092 72.0993C140.156 72.0347 140.243 71.9987 140.334 71.9987C140.426 71.9987 140.513 72.0347 140.577 72.0993C140.642 72.1633 140.678 72.2507 140.678 72.342V90.5547C140.678 90.6453 140.642 90.7327 140.577 90.7973C140.513 90.8613 140.426 90.898 140.334 90.898Z" fill="black"/>
<path d="M135.612 51.5265H124.321C124.23 51.5265 124.143 51.4903 124.079 51.4259C124.014 51.3615 123.978 51.2741 123.978 51.1831C123.978 51.092 124.014 51.0047 124.079 50.9403C124.143 50.8759 124.23 50.8397 124.321 50.8397H135.612C135.703 50.8397 135.79 50.8759 135.854 50.9403C135.919 51.0047 135.955 51.092 135.955 51.1831C135.955 51.2741 135.919 51.3615 135.854 51.4259C135.79 51.4903 135.703 51.5265 135.612 51.5265Z" fill="black"/>
<path d="M153.819 42.7859C152.016 42.289 150.103 42.3635 148.344 42.999C146.585 43.6346 145.066 44.8 143.997 46.3347H158.832C157.628 44.601 155.854 43.345 153.819 42.7859Z" fill="black"/>
<path d="M135.979 61.8841C135.084 60.0419 136.103 48.8753 136.103 48.8753C136.288 47.7061 136.698 46.4167 137.852 46.6039C138.329 46.6811 138.726 47.3027 139.035 47.634C139.218 47.1933 139.546 46.8281 139.964 46.5979C140.382 46.3678 140.866 46.2865 141.336 46.3673C141.807 46.4481 142.236 46.6862 142.553 47.0426C142.871 47.3991 143.057 47.8527 143.083 48.3293C143.435 48.0683 144.096 47.5653 144.567 47.5653C145.734 47.5653 146.138 48.9509 146.136 50.1406L146.38 52.0206C146.551 51.6429 147.204 51.0265 147.582 50.9991C148.636 50.9201 149.237 52.1253 149.314 53.1932L149.626 57.6159C149.97 62.5296 149.111 64.4405 147.291 64.8594C143.676 65.6818 137.752 65.5307 135.979 61.8841Z" fill="white"/>
<path d="M142.795 55.5902C142.704 55.5902 142.616 55.5541 142.552 55.4897C142.488 55.4253 142.451 55.3379 142.451 55.2469L142.527 49.4524C142.521 48.8865 142.721 48.3376 143.088 47.9072C143.271 47.6919 143.498 47.5189 143.754 47.4003C144.011 47.2817 144.289 47.2203 144.572 47.2205C144.853 47.2193 145.129 47.2864 145.378 47.4159C145.628 47.5454 145.842 47.7334 146.002 47.9639C146.314 48.4179 146.477 48.9581 146.467 49.5091L146.613 54.9893C146.613 55.0789 146.578 55.165 146.516 55.2291C146.453 55.2933 146.368 55.3305 146.278 55.3327C146.233 55.3338 146.187 55.3258 146.144 55.3091C146.102 55.2923 146.063 55.2672 146.03 55.2352C145.997 55.2032 145.971 55.1649 145.953 55.1227C145.936 55.0805 145.926 55.0351 145.926 54.9893L145.78 49.4953C145.791 49.0838 145.674 48.6791 145.446 48.3364C145.35 48.1927 145.219 48.0755 145.066 47.9953C144.913 47.9153 144.743 47.8749 144.57 47.878C144.386 47.8784 144.205 47.9189 144.038 47.9965C143.871 48.0742 143.724 48.1873 143.605 48.3279C143.349 48.6352 143.21 49.0231 143.212 49.4232L143.138 55.252C143.137 55.3421 143.1 55.4282 143.036 55.4915C142.972 55.5547 142.885 55.5902 142.795 55.5902Z" fill="black"/>
<path d="M139.095 55.2949H139.074C138.984 55.2897 138.899 55.2485 138.838 55.1806C138.778 55.1127 138.747 55.0235 138.752 54.9327L139.159 48.0017C139.198 47.4482 139.443 46.9295 139.845 46.5475C140.047 46.3606 140.286 46.2182 140.547 46.1295C140.807 46.0408 141.084 46.0077 141.358 46.0324C142.46 46.1234 143.246 47.1381 143.155 48.3433L143.186 50.4036C143.186 50.4947 143.15 50.582 143.086 50.6464C143.021 50.7108 142.934 50.747 142.843 50.747C142.752 50.747 142.665 50.7108 142.6 50.6464C142.536 50.582 142.5 50.4947 142.5 50.4036L142.469 48.3347V48.3004C142.529 47.5828 142.139 46.7827 141.301 46.7123C141.122 46.6972 140.941 46.72 140.77 46.7791C140.6 46.8383 140.444 46.9325 140.312 47.0557C140.035 47.3177 139.866 47.6743 139.838 48.0549L139.432 54.9756C139.426 55.0613 139.388 55.1416 139.325 55.2007C139.263 55.2598 139.181 55.2935 139.095 55.2949Z" fill="black"/>
<path d="M143.19 65.7128C140.168 65.7128 136.837 64.8664 135.73 61.8687C134.065 57.3929 135.754 48.8531 135.826 48.4909V48.4737C136.075 47.4968 136.576 46.2109 138.049 46.2847C138.277 46.2955 138.5 46.3552 138.703 46.4597C138.905 46.5643 139.083 46.7113 139.224 46.8907C139.679 47.4505 139.876 48.3518 139.739 49.248L139.428 54.9686C139.426 55.0137 139.415 55.0579 139.395 55.0987C139.376 55.1394 139.348 55.1759 139.315 55.2061C139.281 55.2363 139.242 55.2597 139.2 55.2747C139.157 55.2898 139.112 55.2963 139.067 55.294C139.022 55.2916 138.977 55.2804 138.937 55.2609C138.896 55.2415 138.859 55.2142 138.829 55.1807C138.799 55.1471 138.776 55.1079 138.761 55.0653C138.746 55.0228 138.739 54.9777 138.741 54.9326L139.052 49.1948C139.052 49.1845 139.052 49.1725 139.052 49.1605C139.162 48.4548 139.016 47.7337 138.681 47.3234C138.601 47.219 138.499 47.1333 138.383 47.0722C138.266 47.0111 138.138 46.9762 138.007 46.9697C137.445 46.9405 136.872 47.1225 136.484 48.6351C136.422 48.9493 134.786 57.3911 136.36 61.6301C137.838 65.6081 143.88 65.3162 146.867 64.6071C149.633 63.9496 149.626 61.2489 149.298 57.2023L148.783 52.8329C148.74 52.2285 148.565 51.7735 148.289 51.5366C148.192 51.4562 148.08 51.3966 147.96 51.3615C147.839 51.3263 147.713 51.3164 147.588 51.3323C146.533 51.4147 146.579 52.8105 146.598 53.0887L146.685 54.9257C146.689 55.0168 146.657 55.1057 146.596 55.1731C146.534 55.2403 146.449 55.2805 146.357 55.2845C146.266 55.2887 146.177 55.2564 146.11 55.1949C146.043 55.1334 146.003 55.0477 145.999 54.9566L145.913 53.1299C145.811 51.7083 146.448 50.7263 147.537 50.649C147.752 50.625 147.969 50.6453 148.176 50.7085C148.382 50.7717 148.574 50.8764 148.739 51.0164C149.161 51.3787 149.413 51.9847 149.468 52.7676L149.983 57.1336C150.275 60.7287 150.574 64.4321 147.029 65.275C145.77 65.5647 144.482 65.7115 143.19 65.7128Z" fill="black"/>
<path d="M170.706 61.8841C171.601 60.0419 170.581 48.8753 170.581 48.8753C170.397 47.7061 169.987 46.4167 168.833 46.6039C168.356 46.6811 167.959 47.3027 167.65 47.634C167.467 47.1933 167.139 46.8281 166.721 46.5979C166.303 46.3678 165.819 46.2865 165.349 46.3673C164.878 46.4481 164.449 46.6862 164.132 47.0426C163.814 47.3991 163.628 47.8527 163.602 48.3293C163.25 48.0683 162.587 47.5653 162.118 47.5653C160.951 47.5653 160.547 48.9509 160.549 50.1406L160.307 52.012C160.135 51.6343 159.483 51.0179 159.105 50.9905C158.051 50.9115 157.45 52.1167 157.373 53.1847L157.06 57.6073C156.717 62.521 157.575 64.4319 159.395 64.8508C163.009 65.6818 168.933 65.5307 170.706 61.8841Z" fill="white"/>
<path d="M163.899 55.5904C163.808 55.5904 163.72 55.5542 163.656 55.4898C163.592 55.4254 163.555 55.338 163.555 55.247L163.48 49.4542C163.483 49.0524 163.344 48.6626 163.087 48.3537C162.968 48.2133 162.82 48.1004 162.654 48.0227C162.487 47.945 162.306 47.9045 162.122 47.9039C161.949 47.9011 161.779 47.9416 161.626 48.0216C161.474 48.1018 161.344 48.2188 161.248 48.3623C161.017 48.7004 160.897 49.1017 160.905 49.5109L160.759 55.0049C160.757 55.05 160.747 55.0944 160.729 55.1356C160.711 55.1768 160.685 55.2141 160.652 55.2452C160.619 55.2763 160.581 55.3006 160.539 55.3168C160.497 55.333 160.452 55.3408 160.407 55.3397C160.362 55.3386 160.317 55.3286 160.276 55.3102C160.235 55.292 160.197 55.2657 160.166 55.233C160.135 55.2004 160.111 55.1619 160.095 55.1198C160.078 55.0777 160.071 55.0328 160.072 54.9877L160.218 49.4937C160.208 48.9427 160.37 48.4024 160.683 47.9485C160.843 47.718 161.057 47.5299 161.306 47.4004C161.556 47.2708 161.832 47.2038 162.113 47.2051C162.396 47.205 162.674 47.2664 162.931 47.385C163.187 47.5036 163.414 47.6766 163.597 47.8919C163.963 48.3229 164.162 48.8713 164.158 49.437L164.234 55.2264C164.234 55.3174 164.197 55.4048 164.133 55.4692C164.069 55.5336 163.981 55.5698 163.89 55.5698L163.899 55.5904Z" fill="black"/>
<path d="M167.59 55.295C167.502 55.2952 167.417 55.2616 167.353 55.2012C167.289 55.1408 167.251 55.0583 167.247 54.9705L166.839 48.0412C166.811 47.6636 166.641 47.3104 166.366 47.0506C166.234 46.9274 166.078 46.8332 165.908 46.774C165.737 46.7149 165.557 46.6921 165.377 46.7072C165.201 46.7212 165.031 46.7738 164.878 46.861C164.725 46.9482 164.593 47.068 164.491 47.212C164.271 47.528 164.171 47.9122 164.209 48.2953V48.3296L164.177 50.3985C164.177 50.4896 164.141 50.5769 164.076 50.6413C164.012 50.7057 163.924 50.7418 163.833 50.7418C163.742 50.7418 163.655 50.7057 163.591 50.6413C163.526 50.5769 163.49 50.4896 163.49 50.3985L163.521 48.3382C163.473 47.7972 163.619 47.2569 163.933 46.8136C164.093 46.5896 164.299 46.4031 164.539 46.2672C164.778 46.1314 165.044 46.0496 165.318 46.0273C165.593 46.0027 165.869 46.0358 166.129 46.1246C166.39 46.2133 166.629 46.3556 166.831 46.5424C167.233 46.9216 167.477 47.4373 167.518 47.988L167.927 54.9276C167.931 55.0184 167.901 55.1076 167.84 55.1755C167.779 55.2434 167.695 55.2846 167.603 55.2898L167.59 55.295Z" fill="black"/>
<path d="M163.495 65.7127C162.199 65.7124 160.907 65.5655 159.644 65.2749C156.099 64.432 156.398 60.7287 156.688 57.1473L157.203 52.7521C157.258 51.9847 157.51 51.3786 157.933 51.0163C158.097 50.876 158.289 50.771 158.495 50.7078C158.702 50.6446 158.92 50.6245 159.134 50.6489C160.223 50.7313 160.86 51.7082 160.759 53.1384L160.673 54.9565C160.671 55.0017 160.66 55.0459 160.641 55.0869C160.622 55.1277 160.595 55.1645 160.561 55.1949C160.528 55.2254 160.489 55.249 160.446 55.2643C160.404 55.2797 160.359 55.2865 160.314 55.2845C160.269 55.2825 160.224 55.2716 160.184 55.2525C160.143 55.2334 160.106 55.2064 160.075 55.1731C160.045 55.1397 160.021 55.1007 160.006 55.0583C159.991 55.0158 159.984 54.9707 159.986 54.9257L160.072 53.0972C160.092 52.8105 160.139 51.4146 159.083 51.3322C158.958 51.3163 158.832 51.3263 158.711 51.3614C158.591 51.3965 158.479 51.4561 158.382 51.5365C158.106 51.7735 157.931 52.2233 157.89 52.8173L157.375 57.2143C157.048 61.2489 157.042 63.9495 159.807 64.6071C162.795 65.3161 168.837 65.6081 170.315 61.6301C171.889 57.3945 170.251 48.9475 170.189 48.635C169.803 47.1225 169.231 46.9422 168.668 46.9697C168.537 46.9761 168.409 47.0111 168.292 47.0721C168.175 47.1333 168.073 47.2189 167.993 47.3233C167.65 47.7337 167.513 48.4547 167.623 49.1604C167.623 49.1724 167.623 49.1844 167.623 49.1947L167.933 54.9325C167.936 54.9776 167.929 55.0227 167.914 55.0653C167.899 55.1079 167.876 55.147 167.845 55.1806C167.815 55.2141 167.779 55.2414 167.738 55.2609C167.697 55.2803 167.653 55.2915 167.608 55.2939C167.563 55.2963 167.518 55.2897 167.475 55.2747C167.433 55.2596 167.393 55.2363 167.36 55.2061C167.327 55.1759 167.299 55.1393 167.28 55.0986C167.26 55.0579 167.249 55.0137 167.247 54.9685L166.937 49.2531C166.804 48.3569 167.001 47.4538 167.453 46.8958C167.593 46.7164 167.771 46.5694 167.974 46.4649C168.177 46.3603 168.399 46.3005 168.627 46.2897C170.102 46.2142 170.601 47.5019 170.851 48.4788V48.4959C170.923 48.8582 172.61 57.3979 170.947 61.8738C169.841 64.8646 166.517 65.7127 163.495 65.7127Z" fill="black"/>
<path d="M156.983 74.586V82.7053C159.558 82.7053 161.66 80.6447 161.66 78.1207V74.586H156.983Z" fill="white"/>
<path d="M144.328 74.586V82.7053C146.912 82.7053 149.007 80.6447 149.007 78.1207V74.586H144.328Z" fill="white"/>
<path d="M117.483 111.656H117.437L117.449 110.969C117.49 110.969 121.315 110.999 123.873 108.479C125.419 106.955 126.205 104.808 126.205 102.095H126.892C126.892 105 126.033 107.315 124.351 108.973C121.708 111.575 117.967 111.656 117.483 111.656Z" fill="white"/>
<path d="M163.174 74.72H140.34C140.249 74.72 140.161 74.6833 140.097 74.6193C140.033 74.5547 139.996 74.4673 139.996 74.376C139.996 74.2853 140.033 74.198 140.097 74.1333C140.161 74.0693 140.249 74.0327 140.34 74.0327H163.174C163.265 74.0327 163.353 74.0693 163.417 74.1333C163.481 74.198 163.518 74.2853 163.518 74.376C163.518 74.4673 163.481 74.5547 163.417 74.6193C163.353 74.6833 163.265 74.72 163.174 74.72Z" fill="black"/>
<path d="M146.668 77.542C147.103 77.542 147.456 77.1893 147.456 76.754C147.456 76.3187 147.103 75.966 146.668 75.966C146.233 75.966 145.88 76.3187 145.88 76.754C145.88 77.1893 146.233 77.542 146.668 77.542Z" fill="#2760AD"/>
<path d="M159.322 77.542C159.757 77.542 160.11 77.1893 160.11 76.754C160.11 76.3187 159.757 75.966 159.322 75.966C158.886 75.966 158.533 76.3187 158.533 76.754C158.533 77.1893 158.886 77.542 159.322 77.542Z" fill="#2760AD"/>
<path d="M150.467 159.285C150.05 159.284 149.643 159.159 149.296 158.927C148.95 158.695 148.68 158.365 148.521 157.979C148.361 157.594 148.32 157.17 148.402 156.761C148.484 156.351 148.685 155.976 148.98 155.681C149.275 155.387 149.651 155.186 150.061 155.105C150.47 155.023 150.894 155.065 151.279 155.225C151.665 155.385 151.994 155.655 152.226 156.003C152.457 156.349 152.581 156.757 152.581 157.175C152.581 157.452 152.526 157.727 152.42 157.983C152.313 158.239 152.157 158.471 151.961 158.667C151.765 158.863 151.532 159.019 151.276 159.125C151.019 159.231 150.745 159.285 150.467 159.285ZM150.467 155.751C150.186 155.751 149.911 155.835 149.677 155.991C149.443 156.147 149.26 156.37 149.153 156.63C149.045 156.89 149.017 157.176 149.072 157.452C149.126 157.728 149.262 157.982 149.461 158.181C149.66 158.38 149.914 158.515 150.19 158.571C150.466 158.625 150.752 158.597 151.012 158.489C151.272 158.382 151.495 158.199 151.651 157.965C151.807 157.731 151.891 157.456 151.891 157.175C151.891 156.987 151.854 156.803 151.782 156.63C151.711 156.457 151.606 156.3 151.474 156.168C151.342 156.036 151.185 155.931 151.012 155.859C150.839 155.788 150.654 155.751 150.467 155.751Z" fill="white"/>
<path d="M165.142 162.112C165.105 162.112 165.07 162.106 165.035 162.095L158.844 160.093C158.799 160.081 158.757 160.06 158.72 160.031C158.683 160.003 158.653 159.967 158.631 159.925C158.608 159.885 158.595 159.839 158.59 159.793C158.586 159.747 158.591 159.699 158.605 159.655C158.62 159.611 158.643 159.57 158.674 159.535C158.704 159.499 158.742 159.471 158.784 159.451C158.826 159.431 158.872 159.419 158.919 159.418C158.965 159.416 159.012 159.424 159.055 159.441L165.246 161.443C165.324 161.468 165.39 161.52 165.432 161.589C165.475 161.659 165.491 161.741 165.478 161.821C165.466 161.902 165.425 161.975 165.363 162.029C165.302 162.082 165.223 162.111 165.142 162.112Z" fill="white"/>
<path d="M158.959 162.138C158.878 162.137 158.8 162.107 158.739 162.055C158.678 162.002 158.637 161.929 158.624 161.849C158.611 161.769 158.627 161.688 158.668 161.618C158.71 161.549 158.775 161.496 158.851 161.47L165.032 159.409C165.118 159.381 165.213 159.388 165.294 159.429C165.376 159.469 165.437 159.541 165.466 159.628C165.495 159.714 165.488 159.809 165.447 159.89C165.406 159.971 165.335 160.033 165.248 160.062L159.067 162.122C159.032 162.133 158.996 162.139 158.959 162.138Z" fill="white"/>
<path d="M177.373 162.112C177.337 162.112 177.301 162.106 177.266 162.095L171.075 160.093C170.993 160.061 170.927 159.999 170.889 159.92C170.851 159.841 170.845 159.75 170.872 159.667C170.899 159.583 170.957 159.513 171.034 159.471C171.111 159.429 171.201 159.418 171.287 159.441L177.476 161.442C177.553 161.468 177.619 161.52 177.661 161.589C177.704 161.659 177.721 161.741 177.708 161.821C177.695 161.902 177.655 161.975 177.593 162.029C177.531 162.082 177.453 162.111 177.371 162.112H177.373Z" fill="white"/>
<path d="M171.19 162.138C171.109 162.137 171.031 162.107 170.97 162.055C170.909 162.002 170.868 161.929 170.855 161.849C170.843 161.769 170.858 161.688 170.899 161.618C170.941 161.549 171.005 161.496 171.082 161.47L177.263 159.409C177.349 159.381 177.444 159.388 177.525 159.429C177.607 159.469 177.669 159.541 177.697 159.628C177.726 159.714 177.719 159.809 177.678 159.89C177.637 159.971 177.565 160.033 177.479 160.062L171.299 162.122C171.263 162.133 171.227 162.139 171.19 162.138Z" fill="white"/>
<path d="M147.64 124.083C147.549 124.083 147.462 124.047 147.397 123.983C147.333 123.918 147.297 123.831 147.297 123.74V120.038C147.297 119.947 147.333 119.86 147.397 119.795C147.462 119.731 147.549 119.695 147.64 119.695C147.731 119.695 147.818 119.731 147.883 119.795C147.947 119.86 147.983 119.947 147.983 120.038V123.74C147.983 123.831 147.947 123.918 147.883 123.983C147.818 124.047 147.731 124.083 147.64 124.083Z" fill="white"/>
<path d="M270.219 168.819H243.665L241.948 131.225H271.937L270.219 168.819Z" fill="white"/>
<path d="M271.217 131.912L269.564 168.138H244.326L242.673 131.912H271.217ZM271.937 131.225H241.948L243.665 168.825H270.219L271.937 131.225Z" fill="#2760AD"/>
<path d="M261.555 74.0347L261.492 74.718L268.557 75.3713L268.621 74.6873L261.555 74.0347Z" fill="white"/>
<path d="M270.578 160.585H243.304V161.272H270.578V160.585Z" fill="#2760AD"/>
<path d="M269.899 163.025H244.056V163.712H269.899V163.025Z" fill="#2760AD"/>
<path d="M187.393 53.0116H186.706V115.543H187.393V53.0116Z" fill="#2760AD"/>
<path d="M215.762 70.714H200.053C199.961 70.714 199.874 70.678 199.81 70.6133C199.745 70.5493 199.709 70.462 199.709 70.3707C199.709 70.28 199.745 70.1927 199.81 70.128C199.874 70.0633 199.961 70.0273 200.053 70.0273H215.762C215.853 70.0273 215.941 70.0633 216.005 70.128C216.069 70.1927 216.105 70.28 216.105 70.3707C216.105 70.462 216.069 70.5493 216.005 70.6133C215.941 70.678 215.853 70.714 215.762 70.714Z" fill="#2760AD"/>
<path d="M221.804 77.8593H194.018C193.927 77.8593 193.839 77.8233 193.775 77.7593C193.711 77.6947 193.675 77.6073 193.675 77.516C193.675 77.4253 193.711 77.338 193.775 77.2733C193.839 77.2093 193.927 77.1727 194.018 77.1727H221.804C221.895 77.1727 221.982 77.2093 222.047 77.2733C222.111 77.338 222.147 77.4253 222.147 77.516C222.147 77.6073 222.111 77.6947 222.047 77.7593C221.982 77.8233 221.895 77.8593 221.804 77.8593Z" fill="#2760AD"/>
<path d="M221.804 81.0153H194.018C193.927 81.0153 193.839 80.9793 193.775 80.9147C193.711 80.8507 193.675 80.7633 193.675 80.672C193.675 80.5807 193.711 80.4933 193.775 80.4293C193.839 80.3647 193.927 80.3287 194.018 80.3287H221.804C221.895 80.3287 221.982 80.3647 222.047 80.4293C222.111 80.4933 222.147 80.5807 222.147 80.672C222.147 80.7633 222.111 80.8507 222.047 80.9147C221.982 80.9793 221.895 81.0153 221.804 81.0153Z" fill="#2760AD"/>
<path d="M221.804 84.1746H194.018C193.927 84.1746 193.839 84.1386 193.775 84.074C193.711 84.01 193.675 83.9226 193.675 83.8313C193.675 83.74 193.711 83.6526 193.775 83.5886C193.839 83.524 193.927 83.488 194.018 83.488H221.804C221.895 83.488 221.982 83.524 222.047 83.5886C222.111 83.6526 222.147 83.74 222.147 83.8313C222.147 83.9226 222.111 84.01 222.047 84.074C221.982 84.1386 221.895 84.1746 221.804 84.1746Z" fill="#2760AD"/>
<path d="M221.804 87.33H194.018C193.927 87.33 193.839 87.294 193.775 87.2293C193.711 87.1653 193.675 87.078 193.675 86.9866C193.675 86.8953 193.711 86.808 193.775 86.744C193.839 86.6793 193.927 86.6433 194.018 86.6433H221.804C221.895 86.6433 221.982 86.6793 222.047 86.744C222.111 86.808 222.147 86.8953 222.147 86.9866C222.147 87.078 222.111 87.1653 222.047 87.2293C221.982 87.294 221.895 87.33 221.804 87.33Z" fill="#2760AD"/>
<path d="M221.804 90.4873H194.018C193.927 90.4873 193.839 90.4513 193.775 90.3867C193.711 90.3227 193.675 90.2353 193.675 90.144C193.675 90.0527 193.711 89.9653 193.775 89.9013C193.839 89.8367 193.927 89.8007 194.018 89.8007H221.804C221.895 89.8007 221.982 89.8367 222.047 89.9013C222.111 89.9653 222.147 90.0527 222.147 90.144C222.147 90.2353 222.111 90.3227 222.047 90.3867C221.982 90.4513 221.895 90.4873 221.804 90.4873Z" fill="#2760AD"/>
<path d="M221.804 93.6447H194.018C193.927 93.6447 193.839 93.6087 193.775 93.5447C193.711 93.48 193.675 93.3927 193.675 93.3013C193.675 93.2107 193.711 93.1233 193.775 93.0587C193.839 92.9947 193.927 92.958 194.018 92.958H221.804C221.895 92.958 221.982 92.9947 222.047 93.0587C222.111 93.1233 222.147 93.2107 222.147 93.3013C222.147 93.3927 222.111 93.48 222.047 93.5447C221.982 93.6087 221.895 93.6447 221.804 93.6447Z" fill="#2760AD"/>
<path d="M236.933 43.0228H233.103C233.011 43.0228 232.924 42.9867 232.859 42.9223C232.795 42.8579 232.759 42.7705 232.759 42.6795V38.8491C232.759 38.7581 232.795 38.6707 232.859 38.6063C232.924 38.5419 233.011 38.5057 233.103 38.5057H236.933C237.024 38.5057 237.111 38.5419 237.175 38.6063C237.24 38.6707 237.276 38.7581 237.276 38.8491V42.6795C237.276 42.7705 237.24 42.8579 237.175 42.9223C237.111 42.9867 237.024 43.0228 236.933 43.0228ZM233.446 42.3361H236.589V39.1925H233.446V42.3361Z" fill="black"/>
<path d="M244.655 43.0227C244.565 43.0223 244.477 42.9859 244.413 42.9213L240.583 39.0927C240.549 39.0615 240.521 39.0235 240.501 38.9811C240.482 38.9388 240.471 38.893 240.471 38.8465C240.469 38.8 240.478 38.7538 240.495 38.7106C240.513 38.6675 240.539 38.6283 240.571 38.5955C240.605 38.5626 240.644 38.5368 240.687 38.5196C240.73 38.5025 240.777 38.4942 240.823 38.4954C240.869 38.4967 240.915 38.5073 240.957 38.5267C241 38.5462 241.037 38.5741 241.069 38.6086L244.899 42.4372C244.931 42.4691 244.957 42.5069 244.973 42.5487C244.991 42.5903 245 42.635 245 42.6801C245 42.7253 244.991 42.7699 244.973 42.8116C244.957 42.8533 244.931 42.8912 244.899 42.9231C244.867 42.9549 244.829 42.9801 244.787 42.9971C244.745 43.0143 244.701 43.0229 244.655 43.0227Z" fill="black"/>
<path d="M240.829 43.0228C240.76 43.0232 240.693 43.0033 240.637 42.9656C240.58 42.9279 240.535 42.8741 240.509 42.8111C240.483 42.7481 240.477 42.6788 240.49 42.6119C240.503 42.545 240.536 42.4837 240.585 42.4357L244.415 38.607C244.447 38.5751 244.485 38.5498 244.527 38.5325C244.568 38.5153 244.613 38.5064 244.658 38.5064C244.703 38.5064 244.748 38.5153 244.789 38.5325C244.831 38.5498 244.869 38.5751 244.901 38.607C244.933 38.6389 244.958 38.6768 244.975 38.7185C244.993 38.7601 245.001 38.8048 245.001 38.8499C245.001 38.8951 244.993 38.9397 244.975 38.9814C244.958 39.0231 244.933 39.061 244.901 39.0929L241.071 42.9215C241.007 42.986 240.919 43.0224 240.829 43.0228Z" fill="black"/>
<path d="M165.83 128.859L167.59 156.807L165.566 157.174L165.83 128.859Z" fill="black"/>
<defs>
<filter id="filter0_f_2169_5032" x="135" y="-146" width="389" height="381" filterUnits="userSpaceOnUse" color-interpolation-filters="sRGB">
<feFlood flood-opacity="0" result="BackgroundImageFix"/>
<feBlend mode="normal" in="SourceGraphic" in2="BackgroundImageFix" result="shape"/>
<feGaussianBlur stdDeviation="16" result="effect1_foregroundBlur_2169_5032"/>
</filter>
<filter id="filter1_f_2169_5032" x="-100" y="-118" width="367" height="346" filterUnits="userSpaceOnUse" color-interpolation-filters="sRGB">
<feFlood flood-opacity="0" result="BackgroundImageFix"/>
<feBlend mode="normal" in="SourceGraphic" in2="BackgroundImageFix" result="shape"/>
<feGaussianBlur stdDeviation="16" result="effect1_foregroundBlur_2169_5032"/>
</filter>
</defs>
</svg>
