<svg width="400" height="229" viewBox="0 0 400 229" fill="none" xmlns="http://www.w3.org/2000/svg">
<rect width="400" height="229" fill="white"/>
<g opacity="0.12">
<mask id="mask0_266_9709" style="mask-type:alpha" maskUnits="userSpaceOnUse" x="0" y="0" width="400" height="436">
<rect width="400" height="436" fill="white"/>
</mask>
<g mask="url(#mask0_266_9709)">
<g filter="url(#filter0_f_266_9709)">
<ellipse cx="330.5" cy="-8.5" rx="162.5" ry="158.5" fill="#009EC1"/>
</g>
<g filter="url(#filter1_f_266_9709)">
<ellipse cx="83.5" cy="55" rx="151.5" ry="141" fill="#005BD6"/>
</g>
</g>
</g>
<path d="M282.312 75.4628C282.725 75.9175 282.702 76.7741 282.226 77.2675L277.221 82.6428L282.657 78.2688C283.166 77.8548 284.004 77.8968 284.418 78.3515L284.482 78.4208C284.896 78.8748 284.851 79.7041 284.398 80.1861L279.383 84.8688L283.957 82.0428C284.076 81.9561 284.213 81.8955 284.357 81.8635C284.501 81.8308 284.65 81.8282 284.796 81.8555C284.941 81.8822 285.079 81.9388 285.202 82.0208C285.325 82.1021 285.43 82.2081 285.511 82.3321L285.564 82.4101C285.73 82.6555 285.792 82.9555 285.738 83.2468C285.684 83.5375 285.518 83.7955 285.275 83.9642L280.974 87.0508C279.79 87.8975 278.657 88.8155 277.584 89.8001C274.362 92.7661 271.301 95.9108 268.3 98.1235C268.3 98.1235 262.703 88.3328 261.9 87.1841C266.298 81.7895 268.122 80.3655 269.914 76.4035C270.622 74.8395 272.676 75.2882 272.248 77.1862C272.087 77.9015 271.197 79.8521 271.197 79.8521L277.004 73.7588C277.458 73.3448 278.347 73.3868 278.76 73.8408L278.823 73.9102C279.236 74.3648 279.338 75.0682 278.937 75.5222L274.574 80.8215L280.438 75.3081C280.892 74.8941 281.838 74.9395 282.252 75.3935L282.312 75.4628Z" fill="white"/>
<path d="M277.833 74.0478C278.018 74.0398 278.199 74.1038 278.337 74.2272L278.401 74.2965C278.608 74.5252 278.709 74.9098 278.511 75.1345L278.497 75.1518L274.123 80.4505C274.029 80.5645 273.982 80.7092 273.991 80.8558C274.001 81.0025 274.066 81.1405 274.173 81.2405C274.281 81.3418 274.422 81.3985 274.569 81.3985C274.717 81.3985 274.859 81.3418 274.966 81.2405L280.825 75.7265C280.957 75.6332 281.117 75.5865 281.278 75.5945C281.475 75.5838 281.668 75.6485 281.819 75.7752L281.883 75.8452C282.081 76.0619 282.085 76.5685 281.811 76.8578V76.8652L276.804 82.2418C276.703 82.3492 276.648 82.4905 276.647 82.6372C276.647 82.7839 276.703 82.9245 276.803 83.0318C276.903 83.1392 277.04 83.2045 277.186 83.2152C277.333 83.2252 277.477 83.1799 277.591 83.0872L283.029 78.7098C283.167 78.6058 283.337 78.5512 283.511 78.5539C283.599 78.5499 283.689 78.5639 283.772 78.5945C283.855 78.6252 283.932 78.6725 283.997 78.7332L284.061 78.8025C284.267 79.0299 284.233 79.5045 283.994 79.7705L278.995 84.4385C278.91 84.5178 278.851 84.6212 278.825 84.7345C278.8 84.8472 278.809 84.9658 278.852 85.0738C278.895 85.1818 278.969 85.2745 279.064 85.3398C279.16 85.4052 279.273 85.4398 279.389 85.4398C279.497 85.4405 279.603 85.4105 279.693 85.3532L284.26 82.5272L284.281 82.5138C284.375 82.4472 284.487 82.4098 284.603 82.4072C284.69 82.4085 284.775 82.4305 284.851 82.4725C284.926 82.5145 284.99 82.5745 285.037 82.6472L285.091 82.7252C285.171 82.8458 285.201 82.9925 285.173 83.1338C285.146 83.2758 285.065 83.4012 284.946 83.4838L280.649 86.5658C279.445 87.4292 278.295 88.3638 277.205 89.3659C276.317 90.1832 275.433 91.0212 274.579 91.8332C272.469 93.8339 270.467 95.7325 268.489 97.2579C267.369 95.3045 263.759 89.0098 262.627 87.2138C263.703 85.9032 264.613 84.8412 265.422 83.8972C267.721 81.2118 269.11 79.5912 270.453 76.6338C270.657 76.1852 270.983 76.0258 271.22 76.0258C271.292 76.0238 271.364 76.0385 271.43 76.0692C271.495 76.0992 271.553 76.1445 271.599 76.2012C271.743 76.3832 271.779 76.6845 271.696 77.0505C271.575 77.5885 270.925 79.0759 270.683 79.6025C270.626 79.7272 270.615 79.8685 270.651 80.0005C270.689 80.1325 270.771 80.2472 270.885 80.3238C270.999 80.4012 271.136 80.4352 271.272 80.4199C271.409 80.4052 271.535 80.3418 271.629 80.2425L277.417 74.1652C277.539 74.0812 277.685 74.0398 277.833 74.0478ZM277.833 73.4692C277.532 73.4612 277.239 73.5645 277.009 73.7585L271.203 79.8519C271.203 79.8519 272.093 77.9012 272.253 77.1865C272.505 76.0705 271.9 75.4498 271.213 75.4498C270.732 75.4498 270.211 75.7525 269.919 76.3978C268.121 80.3598 266.301 81.7832 261.905 87.1779C262.709 88.3265 268.305 98.1172 268.305 98.1172C271.307 95.9045 274.367 92.7632 277.589 89.7939C278.663 88.8092 279.795 87.8912 280.98 87.0445L285.282 83.9552C285.525 83.7865 285.691 83.5285 285.745 83.2379C285.799 82.9472 285.737 82.6465 285.571 82.4012L285.518 82.3232C285.417 82.1738 285.283 82.0512 285.125 81.9665C284.967 81.8812 284.79 81.8358 284.611 81.8338C284.379 81.8358 284.153 81.9078 283.963 82.0412L279.389 84.8672L284.405 80.1845C284.858 79.7025 284.903 78.8732 284.489 78.4192L284.425 78.3498C284.306 78.2285 284.163 78.1339 284.006 78.0699C283.849 78.0065 283.68 77.9765 283.511 77.9805C283.204 77.9778 282.905 78.0799 282.664 78.2699L277.228 82.6445L282.233 77.2685C282.709 76.7752 282.732 75.9185 282.319 75.4645L282.255 75.3952C282.127 75.2712 281.975 75.1745 281.808 75.1105C281.641 75.0472 281.463 75.0178 281.285 75.0245C280.977 75.0145 280.677 75.1172 280.44 75.3138L274.574 80.8199L278.947 75.5192C279.347 75.0705 279.247 74.3618 278.833 73.9072L278.77 73.8452C278.648 73.7232 278.502 73.6278 278.341 73.5645C278.181 73.5012 278.009 73.4712 277.837 73.4765L277.833 73.4692Z" fill="black"/>
<path d="M132.359 172.573L143.633 168.209C144.177 157.775 144.053 143.685 144.315 134.887C144.702 121.913 153.243 121.021 161.013 124.339C166.703 126.768 210.211 145.657 210.211 145.657C210.195 145.825 211.741 148.505 211.725 148.685C210.945 158.207 202.888 165.076 189.823 158.012L159.65 141.869L158.769 175.927L132.359 172.573Z" fill="#2760AD"/>
<path d="M159.65 141.87L159.772 138.179C159.772 138.14 159.78 138.101 159.795 138.066C159.81 138.03 159.832 137.998 159.859 137.971C159.887 137.944 159.92 137.923 159.956 137.909C159.992 137.895 160.03 137.888 160.069 137.889C160.107 137.89 160.144 137.899 160.179 137.914C160.213 137.93 160.245 137.952 160.271 137.98C160.297 138.007 160.317 138.04 160.331 138.075C160.344 138.111 160.35 138.149 160.349 138.187L160.261 142.193L159.65 141.87Z" fill="white"/>
<path d="M143.633 168.209L131.717 172.37L158.716 186.55L158.769 175.928L143.633 168.209Z" fill="black"/>
<path d="M158.769 182.596L152.46 179.312L151 182.479L150.475 182.236L152.066 178.798C152.083 178.764 152.107 178.734 152.136 178.708C152.165 178.684 152.198 178.665 152.234 178.653C152.271 178.64 152.31 178.635 152.348 178.637C152.387 178.64 152.425 178.65 152.46 178.668L158.776 181.834L158.769 182.596Z" fill="white"/>
<path d="M186.716 147.749C186.716 147.749 199.007 133.048 202.856 136.183C202.856 136.183 216.422 154.439 224.209 161.2C227.439 156.004 245.889 126.906 245.889 126.906L263.552 141.322L254.243 143.04C247.309 154.87 237.366 180.506 224.616 179.206C207.8 177.492 186.716 147.749 186.716 147.749Z" fill="#2760AD"/>
<path d="M226.511 162.566L224.499 160.715L224.21 161.201L226.116 162.982C226.172 163.034 226.247 163.062 226.323 163.06C226.399 163.057 226.471 163.024 226.524 162.968C226.575 162.912 226.601 162.839 226.599 162.764C226.597 162.689 226.565 162.618 226.511 162.566Z" fill="white"/>
<path d="M190.404 151.062C190.363 150.996 190.299 150.949 190.224 150.932C190.149 150.914 190.071 150.927 190.005 150.967C189.94 151.007 189.893 151.072 189.875 151.147C189.857 151.221 189.87 151.3 189.911 151.365C192.867 156.173 195.215 159.179 196.373 160.569C196.689 160.634 196.982 160.694 197.279 160.739C196.422 159.758 193.832 156.628 190.404 151.062Z" fill="white"/>
<path d="M158.805 174.565L143.662 166.843L143.727 166.227L158.821 173.925L158.805 174.565Z" fill="white"/>
<path d="M158.866 172.801L143.773 165.105L143.797 164.467L158.867 172.152L158.866 172.801Z" fill="white"/>
<path d="M143.617 170.973C144.125 170.973 144.536 170.561 144.536 170.054C144.536 169.546 144.125 169.135 143.617 169.135C143.11 169.135 142.698 169.546 142.698 170.054C142.698 170.561 143.11 170.973 143.617 170.973Z" fill="#2760AD"/>
<path d="M146.272 172.315C146.78 172.315 147.191 171.903 147.191 171.396C147.191 170.889 146.78 170.477 146.272 170.477C145.765 170.477 145.354 170.889 145.354 171.396C145.354 171.903 145.765 172.315 146.272 172.315Z" fill="#2760AD"/>
<path d="M254.281 143.031L266.741 141.023L246.695 125.475L241.701 133.515L254.281 143.031Z" fill="black"/>
<path d="M249.347 132.527C249.287 132.526 249.229 132.508 249.181 132.473L244.42 129.136L244.685 128.654L249.275 131.838L251.277 128.964L251.752 129.296L249.581 132.402C249.559 132.434 249.532 132.46 249.5 132.481C249.468 132.502 249.432 132.516 249.395 132.522L249.347 132.527Z" fill="white"/>
<path d="M253.357 144.6L240.73 135.048L241.017 134.539L253.642 144.09L253.357 144.6Z" fill="white"/>
<path d="M252.606 146.037L239.838 136.419L240.182 135.912L252.889 145.524L252.606 146.037Z" fill="white"/>
<path d="M254.618 142.137C255.126 142.137 255.537 141.725 255.537 141.218C255.537 140.71 255.126 140.299 254.618 140.299C254.111 140.299 253.699 140.71 253.699 141.218C253.699 141.725 254.111 142.137 254.618 142.137Z" fill="#2760AD"/>
<path d="M252.239 140.35C252.746 140.35 253.158 139.938 253.158 139.43C253.158 138.923 252.746 138.512 252.239 138.512C251.732 138.512 251.32 138.923 251.32 139.43C251.32 139.938 251.732 140.35 252.239 140.35Z" fill="#2760AD"/>
<path d="M263.445 85.3014L242.209 104.057L209.688 104.233V104.217C209.688 104.217 196.536 103.438 193.996 103.503L166.281 90.1587L166.319 65.4642C162.584 64.1866 157.539 62.9262 153.707 62.0508C153.707 62.0508 152.088 83.6447 151.735 90.846C151.455 96.5587 153.2 98.9914 155.108 100.135C160.896 103.607 182.48 113.752 187.303 116.209L184.83 134.685L210.693 146.261C210.693 146.261 210.305 131.501 210.007 118.966C214.173 118.975 244.925 117.493 246.327 117.478C248.25 117.458 250.134 116.383 251.762 114.801L272.693 94.3507C269.519 92.0354 265.232 87.476 263.445 85.3014Z" fill="#82C6AE"/>
<path d="M164.254 62.7767C164.254 62.7767 167.134 58.6397 166.193 51.5683C165.687 47.7655 163.072 48.5151 160.324 48.4181C157.528 48.3197 153.859 48.052 154.161 53.6983L153.782 62.4353L164.254 62.7767Z" fill="white"/>
<path d="M164.402 63.0707L153.481 62.7147L153.872 53.6999C153.765 51.6567 154.151 50.2169 155.054 49.2981C156.345 47.9842 158.361 48.058 160.138 48.1231L160.334 48.1304C160.761 48.1449 161.19 48.1391 161.605 48.1304C163.875 48.1 166.02 48.0711 166.48 51.5279C167.425 58.6284 164.612 62.7669 164.492 62.939L164.402 63.0707ZM154.085 62.1547L164.1 62.4818C164.557 61.7337 166.73 57.7935 165.907 51.6075C165.515 48.6585 163.881 48.6817 161.612 48.7135C161.191 48.7135 160.756 48.7251 160.31 48.7135H160.112C158.455 48.6542 156.575 48.5847 155.462 49.7177C154.678 50.5151 154.345 51.8173 154.45 53.6955V53.7245L154.085 62.1547Z" fill="black"/>
<path d="M143.317 67.5402L133.953 50.7839L137.142 39.4451L166.305 23.1504L179.738 47.1895L143.317 67.5402Z" fill="white"/>
<path d="M143.317 67.8287C143.265 67.8292 143.215 67.816 143.171 67.7906C143.126 67.7652 143.089 67.7284 143.063 67.684L133.701 50.9262C133.683 50.8934 133.671 50.8572 133.666 50.8196C133.662 50.7821 133.665 50.744 133.675 50.7077L136.859 39.369C136.869 39.3322 136.886 39.2978 136.91 39.2677C136.934 39.2376 136.963 39.2126 136.996 39.1939L166.163 22.8963C166.23 22.8588 166.31 22.8494 166.383 22.8702C166.457 22.8917 166.52 22.941 166.558 23.0077L179.99 47.0468C180.027 47.1138 180.036 47.1928 180.015 47.2666C179.995 47.3404 179.945 47.4029 179.878 47.4404L143.458 67.7925C143.415 67.8165 143.366 67.829 143.317 67.8287ZM134.264 50.7454L143.428 67.1457L179.345 47.0757L166.194 23.5431L137.388 39.6381L134.264 50.7454Z" fill="#82C6AE"/>
<path d="M134.148 51.1384C134.083 51.1384 134.02 51.1165 133.969 51.0761C133.924 51.0408 133.89 50.993 133.873 50.9386C133.855 50.8843 133.854 50.8259 133.869 50.7708L137.052 39.4321C137.068 39.377 137.099 39.3276 137.143 39.2904C137.186 39.2531 137.24 39.2296 137.297 39.2228C137.354 39.216 137.411 39.2262 137.462 39.2521C137.513 39.278 137.555 39.3185 137.583 39.3684L141.654 46.6512C141.673 46.6846 141.684 46.7212 141.689 46.7592C141.693 46.7971 141.69 46.8355 141.68 46.8722C141.669 46.909 141.652 46.9432 141.628 46.9731C141.604 47.003 141.575 47.0278 141.541 47.0462L134.283 51.0979C134.242 51.1222 134.196 51.1362 134.148 51.1384ZM137.426 40.2627L134.616 50.26L141.016 46.6816L137.426 40.2627Z" fill="#82C6AE"/>
<path d="M135.307 66.1107L137.067 61.6278L132.326 60.777L144.781 53.8184L147.761 59.152L135.307 66.1107Z" fill="#2760AD"/>
<path d="M170.029 41.5773C169.978 41.5775 169.928 41.5642 169.884 41.5388C169.84 41.5134 169.803 41.4767 169.777 41.4326L165.743 34.1975C165.709 34.1308 165.702 34.0533 165.723 33.9814C165.745 33.9095 165.794 33.8488 165.859 33.8121C165.925 33.7755 166.002 33.7658 166.075 33.7851C166.147 33.8043 166.209 33.8511 166.248 33.9154L170.283 41.1431C170.32 41.2101 170.329 41.2892 170.308 41.363C170.287 41.4368 170.238 41.4993 170.171 41.5367C170.128 41.5623 170.079 41.5763 170.029 41.5773Z" fill="#82C6AE"/>
<path d="M148.986 44.7878C148.934 44.7883 148.884 44.7752 148.84 44.7497C148.795 44.7243 148.758 44.6875 148.732 44.6432L144.7 37.424C144.661 37.357 144.651 37.2776 144.671 37.2031C144.692 37.1286 144.74 37.0652 144.807 37.0268C144.874 36.9884 144.954 36.9782 145.028 36.9984C145.103 37.0187 145.166 37.0676 145.205 37.1346L149.237 44.3538C149.263 44.3978 149.276 44.4478 149.276 44.4987C149.276 44.5496 149.263 44.5996 149.237 44.6436C149.212 44.6876 149.175 44.7242 149.131 44.7495C149.087 44.7748 149.037 44.788 148.986 44.7878Z" fill="#82C6AE"/>
<path d="M145.523 44.3692C145.472 44.3694 145.422 44.3562 145.378 44.3308C145.334 44.3054 145.297 44.2687 145.271 44.2246L143.002 40.1642C142.964 40.0973 142.954 40.0178 142.974 39.9433C142.994 39.8688 143.043 39.8054 143.11 39.767C143.177 39.7286 143.257 39.7184 143.331 39.7387C143.406 39.7589 143.469 39.8079 143.507 39.8748L145.776 43.9352C145.814 44.0021 145.823 44.0812 145.802 44.155C145.781 44.2288 145.732 44.2913 145.665 44.3287C145.622 44.3542 145.573 44.3682 145.523 44.3692Z" fill="#82C6AE"/>
<path d="M169.063 50.4053C169.012 50.4057 168.961 50.3926 168.917 50.3671C168.872 50.3417 168.835 50.3049 168.81 50.2606L157.61 30.2181C157.59 30.1849 157.577 30.1479 157.571 30.1095C157.566 30.0711 157.568 30.032 157.578 29.9945C157.588 29.9569 157.605 29.9218 157.629 29.8912C157.653 29.8605 157.683 29.835 157.717 29.8161C157.75 29.7971 157.788 29.7852 157.826 29.781C157.865 29.7768 157.904 29.7804 157.941 29.7916C157.978 29.8027 158.013 29.8213 158.043 29.8461C158.073 29.8709 158.097 29.9015 158.115 29.9359L169.315 49.9712C169.34 50.0153 169.354 50.0653 169.354 50.1161C169.354 50.1671 169.34 50.2171 169.314 50.2611C169.289 50.3051 169.252 50.3416 169.208 50.3669C169.164 50.3923 169.114 50.4055 169.063 50.4053Z" fill="#82C6AE"/>
<path d="M166.326 51.9285C166.274 51.929 166.224 51.9158 166.179 51.8904C166.135 51.865 166.098 51.8282 166.072 51.7838L154.873 31.7384C154.854 31.7053 154.841 31.6687 154.836 31.6308C154.831 31.5929 154.834 31.5544 154.844 31.5175C154.854 31.4806 154.871 31.4461 154.895 31.4158C154.918 31.3856 154.947 31.3602 154.98 31.3412C155.013 31.3222 155.05 31.31 155.088 31.3051C155.126 31.3002 155.164 31.3029 155.201 31.3129C155.238 31.3229 155.273 31.3401 155.303 31.3634C155.333 31.3868 155.359 31.4159 155.378 31.449L166.577 51.493C166.603 51.537 166.616 51.5871 166.616 51.638C166.616 51.6889 166.603 51.7388 166.577 51.7829C166.552 51.8269 166.515 51.8634 166.471 51.8888C166.427 51.914 166.376 51.9273 166.326 51.9271V51.9285Z" fill="#82C6AE"/>
<path d="M163.878 53.2982C163.827 53.2984 163.777 53.2851 163.732 53.2597C163.688 53.2343 163.652 53.1976 163.626 53.1535L152.426 33.1096C152.388 33.0426 152.378 32.9631 152.398 32.8886C152.418 32.8142 152.467 32.7507 152.534 32.7124C152.601 32.674 152.68 32.6638 152.755 32.684C152.829 32.7042 152.893 32.7532 152.931 32.8202L164.124 52.8641C164.161 52.931 164.17 53.0101 164.15 53.0839C164.129 53.1577 164.079 53.2202 164.012 53.2576C163.971 53.2818 163.925 53.2956 163.878 53.2982Z" fill="#82C6AE"/>
<path d="M161.238 54.7709C161.187 54.7711 161.137 54.7578 161.092 54.7324C161.048 54.707 161.011 54.6704 160.986 54.6262L149.786 34.5823C149.752 34.5156 149.745 34.438 149.766 34.3662C149.788 34.2942 149.837 34.2336 149.902 34.1969C149.968 34.1603 150.045 34.1506 150.118 34.1698C150.19 34.1891 150.252 34.2358 150.291 34.3002L161.491 54.3412C161.528 54.4082 161.538 54.4872 161.517 54.561C161.496 54.6348 161.447 54.6973 161.38 54.7348C161.336 54.7588 161.287 54.7712 161.238 54.7709Z" fill="#82C6AE"/>
<path d="M150.521 59.69C152.864 58.3808 153.698 55.4143 152.385 53.0641C151.071 50.7138 148.107 49.8699 145.765 51.1791C143.422 52.4883 142.588 55.4549 143.901 57.8051C145.215 60.1553 148.179 60.9993 150.521 59.69Z" fill="#EEA71E"/>
<path d="M165.789 62.8298C167.764 60.7605 169.175 57.6451 167.381 53.0365C167.294 52.826 167.156 52.6407 166.979 52.4977C166.802 52.3545 166.592 52.2582 166.368 52.2175C165.726 52.08 165.109 52.3969 164.911 52.9728C164.832 53.204 164.832 53.4549 164.911 53.6861C164.911 53.6861 164.963 53.8482 164.963 53.8497C166.08 59.8605 160.551 56.7133 158.841 62.5737L165.789 62.8298Z" fill="white"/>
<path d="M165.904 63.126L158.467 62.8511L158.571 62.4951C159.407 59.6285 161.157 58.8052 162.562 58.1439C164.114 57.4132 165.236 56.8851 164.69 53.923C164.677 53.8839 164.648 53.7899 164.644 53.7783L164.634 53.7479C164.546 53.4645 164.55 53.1604 164.647 52.8797C164.893 52.1562 165.645 51.7655 166.438 51.9363C166.708 51.9883 166.96 52.1067 167.172 52.2808C167.384 52.4549 167.549 52.6792 167.652 52.9333C169.183 56.8763 168.626 60.2739 165.996 63.0305L165.904 63.126ZM159.248 62.3012L165.676 62.5371C168.06 59.9744 168.548 56.8141 167.123 53.1431C167.053 52.9786 166.944 52.8339 166.805 52.722C166.666 52.6101 166.501 52.5345 166.325 52.5021C165.825 52.395 165.353 52.6323 165.203 53.0679C165.144 53.2385 165.144 53.4239 165.203 53.5945L165.213 53.6264C165.229 53.6756 165.261 53.7711 165.265 53.8C165.9 57.2179 164.397 57.9211 162.818 58.6677C161.51 59.2813 160.04 59.9715 159.248 62.3012Z" fill="black"/>
<path d="M166.483 62.4564L153.488 61.9844L153.335 66.1852L166.331 66.6572L166.483 62.4564Z" fill="#82C6AE"/>
<path d="M155.53 65.3506C155.245 65.3509 154.97 65.2414 154.764 65.0448C154.557 64.8482 154.434 64.5796 154.42 64.2947C154.406 64.0099 154.503 63.7306 154.689 63.5148C154.876 63.2991 155.138 63.1634 155.422 63.136C155.706 63.1086 155.99 63.1915 156.214 63.3676C156.438 63.5437 156.586 63.7994 156.627 64.0817C156.668 64.3639 156.599 64.6511 156.434 64.8836C156.268 65.1161 156.02 65.2761 155.74 65.3303C155.671 65.3442 155.601 65.351 155.53 65.3506ZM155.53 63.7213C155.44 63.7212 155.35 63.7445 155.272 63.7891C155.193 63.8336 155.127 63.8978 155.08 63.9753C155.033 64.0529 155.007 64.1413 155.005 64.2319C155.002 64.3224 155.023 64.4121 155.065 64.4921C155.108 64.5723 155.17 64.64 155.246 64.6889C155.323 64.7377 155.41 64.766 155.501 64.771C155.591 64.7759 155.681 64.7575 155.763 64.7173C155.844 64.6771 155.913 64.6166 155.964 64.5417C156.018 64.4627 156.049 64.3707 156.054 64.2754C156.059 64.1801 156.039 64.0852 155.994 64.0009C155.949 63.9165 155.883 63.8459 155.801 63.7967C155.719 63.7474 155.626 63.7213 155.53 63.7213Z" fill="white"/>
<path d="M260.739 87.7327L269.628 97.2247L272.696 94.3514L263.807 84.8594L260.739 87.7327Z" fill="#82C6AE"/>
<path d="M269.645 95.4057C269.548 95.4057 269.451 95.3937 269.356 95.369C269.074 95.2943 268.832 95.1097 268.685 94.8563C268.538 94.6037 268.497 94.3023 268.572 94.019C268.625 93.8197 268.732 93.639 268.882 93.4977C269.033 93.3563 269.22 93.2597 269.422 93.219C269.624 93.1783 269.834 93.195 270.026 93.267C270.22 93.3397 270.389 93.4643 270.514 93.6283C270.64 93.7917 270.718 93.987 270.738 94.1923C270.758 94.3977 270.721 94.6043 270.629 94.7897C270.538 94.9743 270.398 95.1303 270.222 95.239C270.047 95.3477 269.845 95.4057 269.638 95.4057H269.645ZM269.645 93.7763C269.53 93.7763 269.418 93.815 269.326 93.8857C269.234 93.9563 269.168 94.055 269.138 94.167C269.112 94.267 269.115 94.373 269.149 94.4717C269.182 94.5697 269.244 94.6557 269.327 94.719C269.41 94.7817 269.509 94.819 269.613 94.825C269.716 94.8317 269.82 94.8077 269.91 94.755C270 94.703 270.072 94.6257 270.118 94.5323C270.163 94.439 270.18 94.3343 270.166 94.231C270.152 94.1283 270.108 94.0317 270.04 93.9537C269.971 93.8757 269.881 93.8203 269.78 93.7937C269.736 93.781 269.691 93.7743 269.645 93.773V93.7763Z" fill="white"/>
<path d="M187.517 117.12H187.476C187.4 117.109 187.332 117.068 187.286 117.007C187.239 116.946 187.22 116.869 187.23 116.793L187.664 113.58C187.67 113.542 187.682 113.506 187.702 113.473C187.721 113.44 187.746 113.41 187.777 113.388C187.808 113.364 187.842 113.347 187.88 113.338C187.917 113.328 187.956 113.326 187.994 113.331C188.032 113.336 188.068 113.349 188.101 113.368C188.134 113.388 188.163 113.413 188.186 113.444C188.21 113.474 188.226 113.509 188.236 113.546C188.246 113.583 188.248 113.622 188.243 113.66L187.8 116.872C187.79 116.94 187.756 117.003 187.704 117.048C187.652 117.094 187.586 117.119 187.517 117.12Z" fill="black"/>
<path d="M165.959 92.8487C165.883 92.8487 165.809 92.818 165.755 92.764C165.7 92.71 165.67 92.636 165.67 92.5593L165.7 89.3167C165.7 89.24 165.731 89.166 165.785 89.112C165.839 89.058 165.913 89.0273 165.99 89.0273C166.066 89.0273 166.14 89.058 166.194 89.112C166.249 89.166 166.279 89.24 166.279 89.3167L166.249 92.5607C166.248 92.6373 166.218 92.7107 166.163 92.7647C166.109 92.8187 166.036 92.8487 165.959 92.8487Z" fill="black"/>
<path d="M240.341 106.333C240.282 106.333 240.224 106.315 240.176 106.281C240.127 106.247 240.09 106.2 240.07 106.144C240.049 106.089 240.046 106.028 240.061 105.971C240.076 105.914 240.108 105.863 240.153 105.824L242.613 103.713C242.64 103.683 242.674 103.658 242.712 103.641C242.749 103.625 242.79 103.617 242.83 103.617C242.872 103.618 242.912 103.627 242.949 103.644C242.986 103.661 243.02 103.686 243.046 103.717C243.073 103.748 243.093 103.785 243.105 103.824C243.117 103.863 243.12 103.904 243.114 103.945C243.109 103.985 243.095 104.025 243.074 104.059C243.052 104.094 243.023 104.124 242.989 104.147L240.529 106.258C240.478 106.305 240.411 106.332 240.341 106.333Z" fill="black"/>
<path d="M195.138 138.778L194.559 138.746L196.09 111.091L204.368 105.035L204.71 105.502L196.653 111.396L195.138 138.778Z" fill="white"/>
<path d="M185.141 134.824L210.283 143.032V146.072L185.141 134.824Z" fill="black"/>
<path d="M193.831 98.0645C194.142 96.8025 193.624 95.5898 192.674 95.3558C191.725 95.1218 190.703 95.9545 190.391 97.2165C190.08 98.4778 190.598 99.6905 191.548 99.9245C192.497 100.159 193.519 99.3258 193.831 98.0645Z" fill="white"/>
<path d="M192.354 95.899C192.448 95.899 192.541 95.9163 192.629 95.9497C193.25 96.1883 193.522 97.1737 193.222 98.1023C192.982 98.8477 192.415 99.3903 191.875 99.3903C191.781 99.3903 191.688 99.373 191.6 99.3397C190.978 99.101 190.706 98.1157 191.006 97.1863C191.247 96.4417 191.814 95.899 192.354 95.899ZM192.354 95.3203C191.572 95.3203 190.786 95.987 190.456 97.0083C190.056 98.2443 190.477 99.5297 191.393 99.8797C191.547 99.939 191.71 99.9697 191.875 99.969C192.656 99.969 193.444 99.3023 193.774 98.279C194.172 97.045 193.752 95.7597 192.836 95.4097C192.682 95.3503 192.519 95.3197 192.354 95.3203Z" fill="black"/>
<path d="M191.855 98.5479C191.795 98.5479 191.736 98.5285 191.687 98.4932C191.638 98.4579 191.601 98.4079 191.581 98.3512C191.246 97.3712 191.817 96.7592 192.161 96.5665C192.228 96.5299 192.307 96.5212 192.381 96.5432C192.455 96.5645 192.517 96.6145 192.553 96.6819C192.59 96.7492 192.599 96.8285 192.577 96.9019C192.555 96.9759 192.505 97.0379 192.438 97.0745C192.377 97.1092 191.869 97.4232 192.123 98.1645C192.148 98.2359 192.144 98.3145 192.112 98.3832C192.08 98.4519 192.022 98.5052 191.951 98.5319C191.92 98.5425 191.887 98.5479 191.855 98.5479Z" fill="black"/>
<path d="M200.012 107.532C204.234 107.532 207.656 104.111 207.656 99.8894C207.656 95.6681 204.234 92.2461 200.012 92.2461C195.791 92.2461 192.369 95.6681 192.369 99.8894C192.369 104.111 195.791 107.532 200.012 107.532Z" fill="white"/>
<path d="M200.015 92.8248C201.635 92.8261 203.205 93.3841 204.463 94.4048C205.72 95.4254 206.588 96.8474 206.923 98.4321C207.257 100.017 207.036 101.668 206.298 103.109C205.559 104.551 204.349 105.695 202.867 106.35C201.386 107.005 199.725 107.131 198.162 106.707C196.599 106.283 195.229 105.335 194.281 104.022C193.333 102.709 192.866 101.11 192.957 99.4928C193.048 97.8761 193.691 96.3394 194.78 95.1401C195.443 94.4094 196.251 93.8261 197.152 93.4268C198.054 93.0281 199.029 92.8234 200.015 92.8248ZM200.015 92.2461C198.231 92.2461 196.503 92.8694 195.131 94.0101C193.758 95.1501 192.827 96.7341 192.501 98.4881C192.173 100.242 192.47 102.055 193.34 103.613C194.209 105.171 195.597 106.377 197.261 107.019C198.925 107.662 200.763 107.702 202.453 107.133C204.144 106.563 205.583 105.42 206.519 103.901C207.456 102.383 207.832 100.584 207.581 98.8174C207.331 97.0508 206.471 95.4274 205.149 94.2288C203.745 92.9514 201.914 92.2448 200.015 92.2461Z" fill="black"/>
<path d="M207.103 97.6448C206.058 96.6888 206.299 95.2721 205.149 94.2288C202.023 91.3928 197.009 92.1594 195.815 94.1188C195.775 94.1854 206.611 97.4468 207.103 97.6448Z" fill="black"/>
<path d="M199.571 100.893C199.544 100.893 199.518 100.89 199.493 100.883L196.726 100.106C196.663 100.088 196.608 100.05 196.57 99.9963C196.532 99.9436 196.513 99.879 196.516 99.8143C196.519 99.749 196.544 99.687 196.587 99.6376C196.629 99.5883 196.687 99.555 196.752 99.543C196.83 99.5283 198.689 99.151 199.557 96.8383C199.57 96.8016 199.589 96.7676 199.615 96.7383C199.641 96.709 199.673 96.6856 199.708 96.669C199.743 96.6516 199.781 96.6423 199.82 96.641C199.859 96.639 199.898 96.6456 199.934 96.659C199.971 96.673 200.004 96.6936 200.032 96.721C200.06 96.7476 200.083 96.7803 200.098 96.8156C200.113 96.8516 200.121 96.8903 200.121 96.929C200.121 96.9683 200.114 97.007 200.099 97.0423C199.503 98.6343 198.478 99.4143 197.739 99.7916L199.649 100.326C199.717 100.344 199.775 100.387 199.814 100.446C199.853 100.504 199.869 100.575 199.859 100.644C199.85 100.714 199.815 100.778 199.762 100.824C199.709 100.87 199.641 100.895 199.571 100.894V100.893Z" fill="black"/>
<path d="M209.343 102.141C209.671 100.884 209.17 99.6645 208.223 99.4171C207.277 99.1698 206.243 99.9885 205.915 101.246C205.587 102.503 206.088 103.723 207.034 103.97C207.981 104.217 209.014 103.398 209.343 102.141Z" fill="white"/>
<path d="M207.882 99.9576C207.918 99.955 207.953 99.955 207.988 99.9576C208.105 99.977 208.216 100.02 208.316 100.084C208.416 100.148 208.501 100.232 208.567 100.33C208.832 100.696 208.928 101.253 208.822 101.818C208.655 102.708 208.007 103.433 207.375 103.433C207.34 103.436 207.305 103.436 207.27 103.433C207.154 103.414 207.042 103.371 206.943 103.307C206.843 103.243 206.758 103.16 206.692 103.062C206.426 102.696 206.332 102.138 206.437 101.572C206.606 100.681 207.254 99.9576 207.882 99.9576ZM207.882 99.379C206.972 99.379 206.096 100.27 205.871 101.466C205.632 102.74 206.227 103.879 207.2 104.008C207.26 104.015 207.32 104.019 207.38 104.02C208.292 104.02 209.169 103.128 209.393 101.933C209.632 100.658 209.037 99.519 208.065 99.3903C208.004 99.3823 207.944 99.3783 207.882 99.379Z" fill="black"/>
<path d="M207.569 102.651C207.511 102.651 207.454 102.634 207.405 102.601C207.357 102.569 207.32 102.522 207.299 102.468C207.278 102.413 207.273 102.354 207.287 102.297C207.299 102.241 207.329 102.189 207.372 102.149C207.968 101.599 207.631 101.065 207.617 101.044C207.596 101.012 207.581 100.977 207.575 100.939C207.567 100.902 207.568 100.863 207.575 100.826C207.583 100.789 207.599 100.753 207.62 100.722C207.641 100.691 207.669 100.664 207.701 100.643C207.733 100.622 207.768 100.608 207.805 100.601C207.843 100.594 207.881 100.594 207.919 100.602C207.955 100.61 207.991 100.625 208.023 100.646C208.054 100.668 208.081 100.695 208.101 100.727C208.319 101.06 208.527 101.873 207.764 102.575C207.711 102.624 207.641 102.651 207.569 102.651Z" fill="black"/>
<path d="M202.67 97.3333C202.804 96.8173 202.725 96.3506 202.496 96.2913C202.266 96.2326 201.972 96.6033 201.84 97.1193C201.706 97.6353 201.784 98.1019 202.014 98.1613C202.244 98.2199 202.538 97.8499 202.67 97.3333Z" fill="black"/>
<path d="M197.916 96.6057C198.05 96.091 197.974 95.625 197.745 95.565C197.516 95.505 197.222 95.8743 197.087 96.389C196.952 96.9043 197.029 97.3703 197.258 97.4297C197.487 97.4897 197.781 97.1203 197.916 96.6057Z" fill="black"/>
<path d="M195.466 101.354C195.322 103.073 196.104 104.628 197.501 105.116C198.898 105.604 200.479 104.874 201.437 103.439L195.466 101.354Z" fill="white"/>
<path d="M196.048 102.17L200.471 103.716C199.869 104.329 199.119 104.689 198.397 104.689C198.157 104.69 197.918 104.65 197.692 104.57C196.774 104.25 196.162 103.328 196.048 102.17ZM195.469 101.354C195.325 103.073 196.107 104.628 197.503 105.116C197.792 105.214 198.095 105.264 198.399 105.261C199.537 105.261 200.683 104.568 201.438 103.433L195.466 101.354H195.469Z" fill="black"/>
<path d="M198.309 113.311C198.689 113.311 198.995 113.004 198.995 112.625C198.995 112.246 198.689 111.939 198.309 111.939C197.931 111.939 197.624 112.246 197.624 112.625C197.624 113.004 197.931 113.311 198.309 113.311Z" fill="white"/>
<path d="M198.052 118.296C198.431 118.296 198.738 117.988 198.738 117.61C198.738 117.231 198.431 116.924 198.052 116.924C197.674 116.924 197.366 117.231 197.366 117.61C197.366 117.988 197.674 118.296 198.052 118.296Z" fill="white"/>
<path d="M167.161 115.621C165.208 114.481 163.189 113.306 160.88 112.108C153.036 108.056 144.127 107.354 135.113 110.098C132.044 111.036 129.09 112.315 126.305 113.909L126.265 118.016C129.318 116.025 132.638 114.478 136.126 113.42C144.374 110.909 152.16 111.506 159.278 115.193C161.509 116.35 163.489 117.508 165.405 118.619C171.261 122.037 176.793 125.265 188.431 128.095L186.189 125.649L188.757 124.598C177.61 121.887 172.791 118.907 167.161 115.621Z" fill="white"/>
<path d="M189.295 128.601L188.369 128.376C176.689 125.537 171.14 122.298 165.265 118.869C163.353 117.753 161.376 116.6 159.152 115.448C152.098 111.799 144.378 111.209 136.21 113.697C132.749 114.745 129.454 116.279 126.425 118.255L125.967 118.558L126.015 113.737L126.159 113.653C128.964 112.049 131.939 110.762 135.028 109.817C144.114 107.05 153.1 107.751 161.012 111.842C163.327 113.041 165.353 114.219 167.305 115.361L167.997 115.765C173.232 118.827 178.176 121.719 188.824 124.303L189.692 124.513L186.683 125.745L189.295 128.601ZM145.895 111.612C150.605 111.61 155.246 112.752 159.417 114.94C161.656 116.098 163.638 117.255 165.557 118.375C171.235 121.689 176.608 124.825 187.573 127.589L185.692 125.544L187.824 124.676C177.686 122.122 172.832 119.284 167.71 116.283L167.02 115.879C165.071 114.742 163.056 113.564 160.753 112.375C152.977 108.351 144.141 107.662 135.203 110.385C132.207 111.296 129.32 112.532 126.593 114.072L126.56 117.471C129.513 115.611 132.702 114.153 136.041 113.137C139.232 112.144 142.553 111.63 145.895 111.612Z" fill="black"/>
<path d="M266.927 118.764C252.794 117.041 244.354 120.563 236.902 123.671C236.276 123.932 235.653 124.19 235.035 124.445C224.549 128.742 215.083 130.136 206.905 129.203L209.733 131.243L206.905 132.892C208.543 133.079 210.189 133.174 211.837 133.174C219.269 133.174 227.341 131.354 236.352 127.663C236.977 127.408 237.604 127.147 238.233 126.88C245.63 123.794 253.282 120.604 266.502 122.217C276.929 123.487 283.387 128.429 285.347 130.14V125.74C279.86 121.962 273.54 119.569 266.927 118.764Z" fill="white"/>
<path d="M211.836 133.462C210.178 133.462 208.521 133.369 206.873 133.182L206.005 133.084L209.2 131.22L205.842 128.788L206.941 128.914C215.464 129.886 224.884 128.293 234.928 124.176C235.544 123.924 236.164 123.666 236.787 123.405C244.276 120.281 252.755 116.748 266.964 118.476C275.918 119.568 282.434 123.346 285.521 125.502L285.646 125.587V130.772L285.165 130.354C283.428 128.832 276.928 123.772 266.476 122.498C253.328 120.896 245.715 124.07 238.354 127.141C237.718 127.407 237.09 127.669 236.464 127.925C227.374 131.647 219.32 133.462 211.836 133.462ZM207.817 132.698C209.136 132.82 210.485 132.883 211.836 132.883C219.244 132.883 227.227 131.087 236.242 127.394C236.867 127.138 237.494 126.878 238.123 126.613C245.556 123.512 253.24 120.307 266.539 121.928C276.36 123.124 282.755 127.623 285.061 129.516V125.898C279.635 122.203 273.405 119.858 266.889 119.06C252.832 117.345 244.426 120.851 237.01 123.944C236.379 124.21 235.758 124.467 235.142 124.72C225.422 128.702 216.28 130.343 207.947 129.607L210.262 131.276L207.817 132.698Z" fill="black"/>
<path d="M267.267 65.1938C267.129 65.1931 266.993 65.1766 266.86 65.1446C265.044 64.7365 263.467 63.4588 263.4 63.4082C263.371 63.3841 263.346 63.3545 263.328 63.3211C263.31 63.2876 263.299 63.2509 263.295 63.2131C263.291 63.1752 263.295 63.137 263.306 63.1006C263.317 63.0642 263.335 63.0303 263.359 63.0009C263.383 62.9714 263.413 62.947 263.446 62.9289C263.479 62.9109 263.516 62.8997 263.554 62.8959C263.592 62.8921 263.63 62.8957 263.667 62.9067C263.703 62.9176 263.737 62.9356 263.766 62.9596C263.782 62.9712 265.307 64.2055 266.987 64.5831C267.095 64.6181 267.208 64.6299 267.321 64.6177C267.433 64.6055 267.541 64.5695 267.639 64.5123C268.101 64.1925 268.255 63.0985 268.433 61.8295C268.523 61.2001 268.623 60.4881 268.775 59.7559C269.052 58.4146 269.498 57.6303 270.172 57.2873C271.079 56.8272 272.327 57.215 273.919 57.9385C274.551 58.2478 275.162 58.5977 275.749 58.9861C277.093 59.8312 278.483 60.7052 279.573 60.2885C280.368 59.9831 280.987 59.0223 281.465 57.351C282.333 54.3369 280.996 49.2883 280.983 49.2377C280.971 49.2003 280.968 49.1612 280.973 49.1225C280.977 49.0838 280.989 49.0464 281.008 49.0125C281.027 48.9786 281.053 48.9489 281.084 48.9251C281.115 48.9015 281.15 48.8842 281.187 48.8745C281.225 48.8647 281.265 48.8627 281.303 48.8685C281.341 48.8743 281.379 48.8878 281.412 48.9082C281.445 48.9286 281.473 48.9555 281.496 48.9872C281.519 49.0189 281.535 49.0549 281.543 49.0929C281.599 49.3057 282.927 54.3456 282.022 57.5145C281.491 59.3739 280.757 60.4592 279.78 60.8325C278.419 61.3535 276.905 60.3984 275.439 59.4795C274.874 59.1051 274.286 58.7668 273.678 58.4667C272.231 57.8126 271.135 57.4537 270.433 57.8054C269.926 58.0615 269.579 58.7199 269.339 59.8746C269.194 60.588 269.093 61.2912 269.005 61.912C268.799 63.372 268.637 64.5267 267.965 64.9897C267.759 65.1286 267.515 65.1999 267.267 65.1938Z" fill="#82C6AE"/>
<path d="M211.577 46.7148C210.372 46.7148 208.866 46.5513 207.846 45.8626C206.854 45.1955 206.304 44.472 206.165 43.6385C205.926 42.232 206.945 40.8675 207.932 39.5492C208.304 39.0707 208.65 38.5732 208.971 38.0588C209.78 36.7016 210.273 35.6481 210.076 34.9261C209.966 34.5282 209.642 34.2026 209.064 33.8828C208.638 33.6527 208.205 33.469 207.823 33.304C206.638 32.799 205.518 32.3214 206.107 30.8716C206.571 29.8005 207.202 28.81 207.977 27.937C208.029 27.883 208.101 27.8517 208.176 27.8497C208.252 27.8477 208.325 27.8752 208.38 27.9262C208.436 27.9773 208.469 28.048 208.473 28.1232C208.477 28.1985 208.452 28.2724 208.402 28.3292C208.39 28.3422 207.256 29.5852 206.644 31.09C206.286 31.9684 206.726 32.2072 208.049 32.7715C208.442 32.9379 208.888 33.1274 209.337 33.3691C210.072 33.7641 210.486 34.2084 210.639 34.7684C210.895 35.6916 210.382 36.8246 209.473 38.3526C209.142 38.8837 208.783 39.3976 208.399 39.8922C207.486 41.1135 206.543 42.3767 206.74 43.5386C206.851 44.2014 207.318 44.8033 208.175 45.3792C209.901 46.5455 213.413 46.0087 213.448 46.0029C213.486 45.9958 213.525 45.9964 213.563 46.0047C213.6 46.013 213.636 46.0288 213.668 46.0511C213.7 46.0734 213.726 46.1019 213.747 46.1348C213.767 46.1676 213.781 46.2043 213.787 46.2425C213.793 46.2808 213.791 46.3198 213.782 46.3574C213.772 46.3949 213.756 46.4302 213.732 46.4612C213.709 46.4921 213.68 46.5181 213.646 46.5376C213.613 46.557 213.576 46.5696 213.538 46.5744C212.888 46.6683 212.233 46.7152 211.577 46.7148Z" fill="black"/>
<path d="M137.947 100.025C137.181 100.025 136.384 99.4634 135.575 98.3521C135.116 97.7241 134.717 97.1654 134.365 96.6734C132.41 93.9427 132.017 93.4407 131.225 93.8081C130.814 93.9994 130.301 94.9661 129.803 95.9134C128.965 97.5054 128.016 99.2981 126.689 99.3327H126.673C124.912 99.2834 124.647 96.4521 124.375 93.4554C124.171 91.2381 123.96 88.9461 123.138 88.0754C122.959 87.8787 122.737 87.7267 122.489 87.6314C122.241 87.5361 121.974 87.5001 121.71 87.5267C118.309 87.7527 112.883 95.2467 112.822 95.3221C112.801 95.3554 112.774 95.3847 112.741 95.4074C112.709 95.4294 112.672 95.4454 112.633 95.4527C112.594 95.4607 112.554 95.4607 112.515 95.4521C112.476 95.4434 112.44 95.4274 112.408 95.4041C112.375 95.3807 112.348 95.3514 112.328 95.3174C112.308 95.2834 112.294 95.2454 112.289 95.2061C112.284 95.1667 112.287 95.1267 112.298 95.0887C112.309 95.0507 112.328 95.0154 112.354 94.9847C112.582 94.6661 117.997 87.1941 121.671 86.9494C122.02 86.9167 122.372 86.9647 122.7 87.0901C123.027 87.2154 123.321 87.4154 123.559 87.6727C124.517 88.6861 124.728 90.9747 124.951 93.3974C125.191 96.0021 125.44 98.7021 126.688 98.7514C127.673 98.7167 128.569 97.0147 129.292 95.6401C129.883 94.5201 130.393 93.5534 130.981 93.2801C132.234 92.7014 132.837 93.5407 134.836 96.3334C135.187 96.8254 135.585 97.3807 136.042 98.0087C136.789 99.0347 137.474 99.5121 138.075 99.4341C139.182 99.2894 139.946 97.2967 140.314 96.3407C140.383 96.1594 140.443 96.0034 140.492 95.8921C140.926 94.9181 141.402 94.4187 142.004 94.3174C143.124 94.1307 144.505 95.3594 146.658 97.6921C146.71 97.7487 146.738 97.8234 146.735 97.9001C146.732 97.9767 146.698 98.0494 146.642 98.1014C146.585 98.1534 146.51 98.1814 146.434 98.1781C146.357 98.1754 146.284 98.1421 146.232 98.0854C144.367 96.0601 142.948 94.7474 142.1 94.8894C141.707 94.9541 141.365 95.3481 141.022 96.1247C140.978 96.2247 140.92 96.3741 140.854 96.5474C140.42 97.6907 139.599 99.8161 138.152 100.009C138.084 100.018 138.015 100.023 137.947 100.025Z" fill="#2760AD"/>
<path d="M245.322 67.3908C245.274 67.3908 245.227 67.3783 245.185 67.3546C243.523 66.4474 241.952 64.9367 240.873 63.2118C239.809 61.5116 239.437 59.9184 239.879 58.9475C240.243 58.1416 241.271 57.3978 244.086 58.431C246.594 59.3498 247.184 58.9692 247.306 58.8318C247.485 58.6248 247.403 58.1662 247.073 57.5367C243.837 51.371 242.983 48.1109 244.123 46.2833C244.935 44.981 246.781 44.4355 250.101 44.5281C253.051 44.6092 254.972 44.0347 255.516 42.9118C255.983 41.9481 255.471 40.5286 254.035 38.8052C250.638 34.7333 254.972 31.0334 255.015 30.9914C255.075 30.942 255.151 30.9182 255.227 30.925C255.303 30.9317 255.374 30.9686 255.423 31.0276C255.473 31.0864 255.497 31.1626 255.49 31.239C255.483 31.3156 255.446 31.3863 255.387 31.4356C255.225 31.5716 251.456 34.8028 254.479 38.4275C256.095 40.3665 256.62 41.9582 256.037 43.1578C255.379 44.518 253.321 45.1836 250.085 45.0997C246.992 45.0158 245.311 45.473 244.615 46.5828C243.613 48.189 244.501 51.3826 247.587 57.2618C248.048 58.143 248.1 58.797 247.74 59.2065C247.216 59.8042 245.956 59.726 243.888 58.9678C242.015 58.2804 240.779 58.3572 240.405 59.1805C239.66 60.8214 242.071 64.9873 245.461 66.8409C245.518 66.8718 245.563 66.9211 245.589 66.9808C245.615 67.0405 245.62 67.1072 245.603 67.1701C245.587 67.233 245.549 67.2884 245.497 67.3274C245.445 67.3664 245.381 67.3867 245.316 67.385L245.322 67.3908Z" fill="#2760AD"/>
<path d="M126.31 80.7993C126.252 80.8 126.196 80.7826 126.148 80.7506C124.643 79.7373 123.543 78.71 124.144 75.476C124.421 73.9826 124.288 72.9887 123.73 72.5227C123.028 71.9293 121.723 72.2826 121.008 72.546C120.912 72.582 120.773 72.6413 120.613 72.7107C119.706 73.1047 118.188 73.7613 117.4 73.1293C116.987 72.7947 116.864 72.1753 117.037 71.2899C117.548 68.6853 117.337 67.8909 117.072 67.6825C116.887 67.5378 116.519 67.6043 115.914 67.888C115.728 67.9763 115.529 68.0732 115.327 68.1774C114.122 68.7721 112.984 69.335 112.468 68.8343C112.034 68.4002 112.553 67.0429 113.074 65.9765C113.11 65.9119 113.169 65.8635 113.24 65.8414C113.311 65.8193 113.387 65.825 113.453 65.8574C113.52 65.8898 113.571 65.9465 113.597 66.0157C113.624 66.0849 113.622 66.1615 113.593 66.2297C113.129 67.1833 112.8 68.1991 112.881 68.4277C113.133 68.6144 114.438 67.9705 115.071 67.6579C115.276 67.5566 115.479 67.4582 115.667 67.3685C116.265 67.0878 116.939 66.8519 117.424 67.2311C118.03 67.7027 118.083 68.9515 117.603 71.4053C117.513 71.8587 117.47 72.4473 117.761 72.682C118.276 73.096 119.697 72.4806 120.38 72.184C120.548 72.112 120.694 72.048 120.805 72.0073C121.818 71.6326 123.22 71.342 124.1 72.084C124.824 72.6946 125.029 73.874 124.709 75.5873C124.13 78.7027 125.265 79.4653 126.467 80.2746C126.519 80.3086 126.558 80.3593 126.579 80.4173C126.599 80.476 126.601 80.5393 126.583 80.5986C126.565 80.658 126.528 80.71 126.479 80.7467C126.429 80.784 126.369 80.804 126.307 80.804L126.31 80.7993Z" fill="black"/>
<path d="M281.296 166.797H281.272C279.167 166.623 277.461 166.202 276.237 162.57C275.658 160.861 274.934 159.909 274.082 159.744C272.996 159.534 271.845 160.657 271.256 161.346C271.177 161.438 271.068 161.579 270.944 161.744C270.245 162.657 269.076 164.186 267.937 163.992C267.341 163.892 266.874 163.338 266.549 162.349C265.572 159.361 264.884 158.659 264.477 158.597C264.188 158.552 263.83 158.836 263.363 159.488C263.218 159.686 263.074 159.899 262.929 160.119C262.045 161.404 261.208 162.618 260.428 162.41C259.722 162.223 259.511 160.304 259.449 159.178C259.446 159.14 259.452 159.102 259.464 159.066C259.477 159.03 259.496 158.998 259.522 158.969C259.547 158.94 259.578 158.918 259.612 158.901C259.646 158.884 259.684 158.874 259.722 158.872C259.76 158.87 259.798 158.876 259.834 158.888C259.87 158.9 259.902 158.92 259.931 158.946C259.96 158.971 259.982 159.002 259.999 159.036C260.016 159.07 260.026 159.107 260.028 159.145C260.102 160.448 260.363 161.721 260.589 161.856C260.967 161.955 261.933 160.553 262.454 159.79C262.599 159.569 262.756 159.356 262.898 159.151C263.341 158.534 263.884 157.918 264.572 158.024C265.431 158.157 266.214 159.434 267.108 162.17C267.28 162.698 267.582 163.344 268.041 163.421C268.831 163.557 269.952 162.094 270.491 161.395C270.621 161.224 270.734 161.077 270.824 160.973C271.644 160.015 272.896 158.926 274.2 159.178C275.273 159.387 276.144 160.466 276.792 162.388C277.992 165.949 279.612 166.082 281.326 166.222C281.403 166.226 281.475 166.259 281.527 166.316C281.58 166.372 281.607 166.447 281.604 166.524C281.601 166.6 281.568 166.672 281.511 166.725C281.454 166.777 281.38 166.804 281.303 166.801L281.296 166.797Z" fill="#82C6AE"/>
<path d="M218.366 63.483C217.799 63.483 217.245 63.3149 216.774 62.9999C216.302 62.6849 215.935 62.2373 215.718 61.7135C215.501 61.1897 215.444 60.6134 215.555 60.0573C215.665 59.5012 215.938 58.9905 216.339 58.5896C216.74 58.1887 217.251 57.9157 217.807 57.8051C218.363 57.6945 218.94 57.7512 219.463 57.9682C219.987 58.1852 220.434 58.5526 220.75 59.024C221.064 59.4954 221.233 60.0496 221.233 60.6166C221.232 61.3764 220.929 62.1049 220.392 62.6422C219.854 63.1795 219.126 63.4819 218.366 63.483ZM218.366 58.3288C217.914 58.3288 217.472 58.4629 217.095 58.7143C216.719 58.9657 216.426 59.323 216.252 59.7411C216.08 60.1591 216.034 60.6191 216.122 61.0628C216.211 61.5066 216.428 61.9142 216.748 62.2341C217.068 62.5541 217.476 62.772 217.92 62.8603C218.364 62.9486 218.824 62.9032 219.242 62.7301C219.66 62.557 220.017 62.2638 220.268 61.8875C220.52 61.5113 220.654 61.069 220.654 60.6166C220.653 60.01 220.412 59.4286 219.983 58.9997C219.554 58.5708 218.973 58.3296 218.366 58.3288Z" fill="#2760AD"/>
<path d="M285.132 106.7C286.028 106.7 286.753 105.975 286.753 105.08C286.753 104.185 286.028 103.459 285.132 103.459C284.238 103.459 283.512 104.185 283.512 105.08C283.512 105.975 284.238 106.7 285.132 106.7Z" fill="#82C6AE"/>
<path d="M191.969 53.8187C192.64 53.8187 193.183 53.2752 193.183 52.6047C193.183 51.9342 192.64 51.3906 191.969 51.3906C191.298 51.3906 190.755 51.9342 190.755 52.6047C190.755 53.2752 191.298 53.8187 191.969 53.8187Z" fill="#82C6AE"/>
<path d="M218.367 78.6554C219.261 78.6554 219.987 77.9294 219.987 77.0347C219.987 76.1394 219.261 75.4141 218.367 75.4141C217.471 75.4141 216.746 76.1394 216.746 77.0347C216.746 77.9294 217.471 78.6554 218.367 78.6554Z" fill="#2760AD"/>
<path d="M283.514 157.78C284.104 157.78 284.582 157.302 284.582 156.712C284.582 156.123 284.104 155.645 283.514 155.645C282.924 155.645 282.446 156.123 282.446 156.712C282.446 157.302 282.924 157.78 283.514 157.78Z" fill="#2760AD"/>
<path d="M260.731 172.729C259.9 172.751 259.083 172.507 258.401 172.03C256.979 171.007 256.74 169.246 256.73 169.173C256.72 169.096 256.741 169.018 256.788 168.957C256.836 168.896 256.906 168.856 256.982 168.846C257.059 168.837 257.136 168.857 257.198 168.905C257.259 168.952 257.299 169.022 257.308 169.099C257.308 169.115 257.53 170.691 258.747 171.559C259.537 172.123 260.582 172.282 261.852 172.026C261.89 172.017 261.929 172.017 261.967 172.023C262.005 172.03 262.041 172.044 262.074 172.065C262.106 172.086 262.134 172.113 262.156 172.145C262.177 172.177 262.192 172.213 262.2 172.251C262.208 172.289 262.208 172.328 262.2 172.365C262.192 172.403 262.177 172.439 262.156 172.471C262.134 172.503 262.106 172.531 262.073 172.551C262.041 172.572 262.004 172.587 261.966 172.593C261.56 172.679 261.146 172.725 260.731 172.729Z" fill="#2760AD"/>
<path d="M206.969 68.6168C206.934 68.6168 206.9 68.6105 206.868 68.598C205.494 68.0886 204.574 67.2957 204.136 66.2452C203.463 64.6274 204.183 63.0024 204.215 62.9344C204.249 62.8678 204.307 62.8167 204.377 62.7918C204.448 62.767 204.525 62.7704 204.593 62.8012C204.661 62.832 204.714 62.888 204.742 62.9572C204.77 63.0266 204.77 63.1039 204.742 63.1732C204.73 63.1992 204.095 64.6506 204.672 66.0266C205.047 66.9224 205.853 67.6054 207.07 68.0524C207.134 68.0758 207.188 68.121 207.222 68.1802C207.256 68.2394 207.268 68.3087 207.256 68.3759C207.244 68.4431 207.208 68.5038 207.156 68.5474C207.104 68.591 207.037 68.6145 206.969 68.6139V68.6168Z" fill="#2760AD"/>
<path d="M286.753 96.6483C286.716 96.6483 286.679 96.641 286.643 96.6263C286.608 96.6123 286.577 96.591 286.549 96.5643C286.523 96.5376 286.501 96.5056 286.487 96.4703C286.472 96.4356 286.464 96.3976 286.464 96.3596C286.464 96.3216 286.471 96.2843 286.486 96.249C287.041 94.893 287.865 94.0016 288.931 93.5996C290.571 92.9816 292.169 93.757 292.237 93.7903C292.307 93.8243 292.359 93.885 292.383 93.9576C292.408 94.0303 292.403 94.1103 292.369 94.179C292.335 94.2476 292.274 94.3003 292.201 94.325C292.129 94.3496 292.049 94.3443 291.98 94.3096C291.958 94.2996 290.533 93.6123 289.131 94.1423C288.222 94.4863 287.513 95.269 287.021 96.469C286.999 96.5216 286.962 96.5676 286.915 96.599C286.867 96.631 286.811 96.6483 286.753 96.6483Z" fill="black"/>
<path d="M209.449 118.961V116.027L229.428 118.103L209.449 118.961Z" fill="black"/>
<defs>
<filter id="filter0_f_266_9709" x="136" y="-199" width="389" height="381" filterUnits="userSpaceOnUse" color-interpolation-filters="sRGB">
<feFlood flood-opacity="0" result="BackgroundImageFix"/>
<feBlend mode="normal" in="SourceGraphic" in2="BackgroundImageFix" result="shape"/>
<feGaussianBlur stdDeviation="16" result="effect1_foregroundBlur_266_9709"/>
</filter>
<filter id="filter1_f_266_9709" x="-100" y="-118" width="367" height="346" filterUnits="userSpaceOnUse" color-interpolation-filters="sRGB">
<feFlood flood-opacity="0" result="BackgroundImageFix"/>
<feBlend mode="normal" in="SourceGraphic" in2="BackgroundImageFix" result="shape"/>
<feGaussianBlur stdDeviation="16" result="effect1_foregroundBlur_266_9709"/>
</filter>
</defs>
</svg>
